<svg id="Group_8790" data-name="Group 8790" xmlns="http://www.w3.org/2000/svg" xmlns:xlink="http://www.w3.org/1999/xlink" width="35.667" height="24.961" viewBox="0 0 35.667 24.961">
  <defs>
    <clipPath id="clip-path">
      <rect id="Rectangle_3205" data-name="Rectangle 3205" width="35.667" height="24.961" fill="none"/>
    </clipPath>
  </defs>
  <g id="Group_8790-2" data-name="Group 8790" clip-path="url(#clip-path)">
    <path id="Path_23398" data-name="Path 23398" d="M32.583,0H3.082A3.087,3.087,0,0,0,0,3.083V21.878a3.087,3.087,0,0,0,3.083,3.083h29.5a3.087,3.087,0,0,0,3.083-3.083V3.083A3.087,3.087,0,0,0,32.583,0m.961,3.747v17.46l-8.73-8.73Zm-21.2,10.231,3.172,3.172a3.4,3.4,0,0,0,4.624,0L23.3,13.985l8.853,8.853H3.484Zm5.476,1.842a1.394,1.394,0,0,1-.973-.354L3.5,2.122H32.138L18.794,15.466a1.394,1.394,0,0,1-.973.354m-6.977-3.343L2.121,21.2V3.754Z" transform="translate(0.001)" fill="#302f33"/>
  </g>
</svg>
