<svg xmlns="http://www.w3.org/2000/svg" xmlns:xlink="http://www.w3.org/1999/xlink" width="18" height="18" viewBox="0 0 18 18">
  <defs>
    <clipPath id="clip-path">
      <rect id="Rectangle_2309" data-name="Rectangle 2309" width="18" height="18"/>
    </clipPath>
  </defs>
  <g id="Group_7953" data-name="Group 7953" clip-path="url(#clip-path)">
    <path id="Path_23115" data-name="Path 23115" d="M9.016,0A9,9,0,1,1,0,8.98,9,9,0,0,1,9.016,0M8.04,15.45h2.437V10.078h1.816l.355-2.3H10.5c0-.575-.016-1.119,0-1.661a.965.965,0,0,1,.815-.943,2.8,2.8,0,0,1,.515-.047c.283-.007.566,0,.865,0V3.215a7.469,7.469,0,0,0-2.435-.091A2.505,2.505,0,0,0,8.327,4.606a3.427,3.427,0,0,0-.285,1.388c0,.51,0,1.021,0,1.531,0,.084-.007.168-.013.281-.659.012-1.3-.005-1.959.014,0,.767-.007,1.5,0,2.245.356,0,.677,0,1,0s.634-.011.974.011Z" transform="translate(0 0)"/>
    <path id="Path_23116" data-name="Path 23116" d="M8.661,15.77V10.4c-.34-.022-.658-.008-.974-.011s-.64,0-1,0c-.009-.748,0-1.478,0-2.245.656-.019,1.3,0,1.959-.014.005-.113.013-.2.013-.281,0-.51,0-1.021,0-1.531a3.427,3.427,0,0,1,.285-1.388,2.505,2.505,0,0,1,1.939-1.482,7.469,7.469,0,0,1,2.435.091V5.45c-.3,0-.582-.005-.865,0a2.8,2.8,0,0,0-.515.047.965.965,0,0,0-.815.943c-.021.542,0,1.086,0,1.661h2.145l-.355,2.3H11.1V15.77Z" transform="translate(-0.621 -0.321)" fill="none"/>
  </g>
</svg>
