<svg xmlns="http://www.w3.org/2000/svg" xmlns:xlink="http://www.w3.org/1999/xlink" width="19.087" height="19.132" viewBox="0 0 19.087 19.132">
  <defs>
    <clipPath id="clip-path">
      <rect id="Rectangle_2309" data-name="Rectangle 2309" width="19.087" height="19.132" fill="none"/>
    </clipPath>
  </defs>
  <g id="Group_7953" data-name="Group 7953" clip-path="url(#clip-path)">
    <path id="Path_23115" data-name="Path 23115" d="M9.56,0A9.566,9.566,0,1,1,0,9.545,9.552,9.552,0,0,1,9.56,0M8.525,16.421h2.584v-5.71h1.926l.376-2.44H11.136c0-.611-.017-1.189,0-1.765A1.025,1.025,0,0,1,12,5.5a2.96,2.96,0,0,1,.546-.05c.3-.008.6,0,.918,0V3.418a7.9,7.9,0,0,0-2.582-.1A2.658,2.658,0,0,0,8.83,4.9a3.65,3.65,0,0,0-.3,1.476c0,.543,0,1.085,0,1.628,0,.089-.008.179-.013.3-.7.013-1.382-.006-2.078.014,0,.816-.008,1.592,0,2.386.378,0,.718,0,1.056,0s.672-.012,1.033.012Z" transform="translate(0 0)" fill="#fff"/>
    <path id="Path_23116" data-name="Path 23116" d="M8.78,16.55V10.839c-.361-.023-.7-.009-1.033-.012s-.678,0-1.056,0c-.01-.795,0-1.571,0-2.386.7-.02,1.379,0,2.078-.014.006-.12.013-.21.013-.3,0-.543,0-1.085,0-1.628a3.65,3.65,0,0,1,.3-1.476,2.658,2.658,0,0,1,2.057-1.576,7.9,7.9,0,0,1,2.582.1V5.581c-.317,0-.618-.006-.918,0a2.96,2.96,0,0,0-.546.05,1.025,1.025,0,0,0-.864,1c-.022.576,0,1.154,0,1.765h2.275l-.376,2.44H11.364v5.71Z" transform="translate(-0.255 -0.129)"/>
  </g>
</svg>
