<svg xmlns="http://www.w3.org/2000/svg" xmlns:xlink="http://www.w3.org/1999/xlink" width="22.766" height="22.807" viewBox="0 0 22.766 22.807">
  <defs>
    <clipPath id="clip-path">
      <rect id="Rectangle_2308" data-name="Rectangle 2308" width="22.766" height="22.807"/>
    </clipPath>
  </defs>
  <g id="Group_7951" data-name="Group 7951" clip-path="url(#clip-path)">
    <path id="Path_23110" data-name="Path 23110" d="M10.906,2.429c1.16,0,2.32-.01,3.48,0a5.812,5.812,0,0,1,2.239.438,4.283,4.283,0,0,1,2.407,2.5,5.856,5.856,0,0,1,.376,1.956c.044,1.795.1,3.588.113,5.384a21.54,21.54,0,0,1-.115,2.622,4.522,4.522,0,0,1-4.188,4.088c-1.057.077-2.118.119-3.178.139-1.247.023-2.5.011-3.744,0A10.869,10.869,0,0,1,6.24,19.39a4.451,4.451,0,0,1-3.548-3.449,10.382,10.382,0,0,1-.183-1.628c-.112-2.025-.029-4.049,0-6.073A13.733,13.733,0,0,1,2.65,6.507,4.468,4.468,0,0,1,4.879,3.126,4.683,4.683,0,0,1,7.035,2.5c1.288-.064,2.58-.078,3.871-.113v.044M3.959,11.12H3.98c0,.843-.011,1.687,0,2.53a8.173,8.173,0,0,0,.182,1.987A2.952,2.952,0,0,0,5.516,17.5a4.047,4.047,0,0,0,1.983.5c2.121.084,4.245.065,6.366-.009a7.229,7.229,0,0,0,1.947-.229,2.868,2.868,0,0,0,1.925-1.821,4.8,4.8,0,0,0,.269-1.709q-.017-3.348-.066-6.7A4.619,4.619,0,0,0,17.606,5.8a2.837,2.837,0,0,0-1.37-1.483A4.5,4.5,0,0,0,14.2,3.908c-2.013-.015-4.027,0-6.04.015a6.483,6.483,0,0,0-2.009.258A2.8,2.8,0,0,0,4.395,5.752a4.364,4.364,0,0,0-.354,1.658c-.036,1.236-.055,2.473-.081,3.71" transform="translate(0.356 0.346)"/>
    <path id="Path_23111" data-name="Path 23111" d="M3.768,10.928c.026-1.236.046-2.473.081-3.71A4.363,4.363,0,0,1,4.2,5.561,2.8,2.8,0,0,1,5.954,3.988a6.513,6.513,0,0,1,2.009-.258C9.977,3.716,11.99,3.7,14,3.717a4.485,4.485,0,0,1,2.041.408,2.843,2.843,0,0,1,1.37,1.484,4.618,4.618,0,0,1,.333,1.726q.05,3.35.066,6.7a4.807,4.807,0,0,1-.269,1.709,2.864,2.864,0,0,1-1.925,1.82,7.184,7.184,0,0,1-1.947.229c-2.122.076-4.245.093-6.366.009a4.035,4.035,0,0,1-1.983-.5,2.949,2.949,0,0,1-1.349-1.858,8.241,8.241,0,0,1-.183-1.988c-.015-.843,0-1.686,0-2.529H3.768" transform="translate(0.548 0.539)" fill="none" stroke="#fff" stroke-width="1"/>
    <path id="Path_23112" data-name="Path 23112" d="M10.515,6.02a4.383,4.383,0,0,1-.062,8.765,4.383,4.383,0,0,1,.062-8.765M7.623,10.392A2.854,2.854,0,1,0,10.445,7.5a2.855,2.855,0,0,0-2.822,2.891" transform="translate(0.887 0.875)"/>
    <path id="Path_23113" data-name="Path 23113" d="M13.669,6.408a.681.681,0,1,1,.694-.681.676.676,0,0,1-.694.681" transform="translate(1.889 1.386)"/>
    <path id="Path_23114" data-name="Path 23114" d="M7.43,10.2a2.842,2.842,0,0,1,2.822-2.891A2.88,2.88,0,1,1,7.43,10.2" transform="translate(1.08 1.063)" fill="none" stroke="#fff" stroke-width="1"/>
  </g>
</svg>
