<svg xmlns="http://www.w3.org/2000/svg" width="20.612" height="20.757" viewBox="0 0 20.612 20.757">
  <g id="Group_8345" data-name="Group 8345" transform="translate(-97.304 -85.298)">
    <path id="Path_23110" data-name="Path 23110" d="M12.659,2.438c1.4,0,2.8-.012,4.2.006a7.018,7.018,0,0,1,2.7.528,5.172,5.172,0,0,1,2.907,3.023,7.07,7.07,0,0,1,.454,2.362c.053,2.167.12,4.333.137,6.5a26.008,26.008,0,0,1-.138,3.166,5.46,5.46,0,0,1-5.057,4.936c-1.276.093-2.557.144-3.838.167-1.506.028-3.013.014-4.521,0a13.123,13.123,0,0,1-2.482-.213,5.375,5.375,0,0,1-4.284-4.164,12.536,12.536,0,0,1-.221-1.965c-.136-2.445-.035-4.889,0-7.332a16.582,16.582,0,0,1,.167-2.094A5.4,5.4,0,0,1,5.383,3.28a5.655,5.655,0,0,1,2.6-.758c1.556-.077,3.116-.094,4.674-.137v.053M4.272,12.933H4.3c0,1.018-.014,2.037.006,3.055a9.869,9.869,0,0,0,.22,2.4,3.565,3.565,0,0,0,1.629,2.244,4.887,4.887,0,0,0,2.394.6c.793.031,1.587.051,2.728.062.6.007,1.554,0,2.595-.011.581-.008,1.472-.031,2.364-.062a8.728,8.728,0,0,0,2.351-.277,3.463,3.463,0,0,0,2.325-2.2,5.8,5.8,0,0,0,.325-2.063c-.006-1.2-.015-2.4-.029-3.914-.011-1.181-.029-2.677-.051-4.173a5.578,5.578,0,0,0-.4-2.085A3.425,3.425,0,0,0,19.1,4.718a5.435,5.435,0,0,0-2.464-.494c-1.476-.011-2.951-.009-4.74,0-.643,0-1.6.01-2.553.018a7.827,7.827,0,0,0-2.426.311A3.378,3.378,0,0,0,4.8,6.451a5.27,5.27,0,0,0-.427,2c-.043,1.492-.066,2.986-.1,4.479" transform="translate(94.852 82.913)"/>
    <path id="Path_23111" data-name="Path 23111" d="M3.768,12.425c.032-1.492.055-2.986.1-4.479a5.269,5.269,0,0,1,.427-2,3.38,3.38,0,0,1,2.114-1.9,7.864,7.864,0,0,1,2.426-.311c2.431-.018,4.862-.036,7.293-.017a5.416,5.416,0,0,1,2.464.492A3.433,3.433,0,0,1,20.245,6a5.576,5.576,0,0,1,.4,2.084q.06,4.045.08,8.089a5.8,5.8,0,0,1-.325,2.063,3.458,3.458,0,0,1-2.325,2.2,8.674,8.674,0,0,1-2.351.277c-2.563.091-5.125.112-7.686.011a4.872,4.872,0,0,1-2.394-.6,3.561,3.561,0,0,1-1.629-2.243,9.95,9.95,0,0,1-.221-2.4c-.018-1.018,0-2.036,0-3.053H3.768" transform="translate(95.356 83.42)" fill="none" stroke="#fff" stroke-width="1.5"/>
    <path id="Path_23112" data-name="Path 23112" d="M11.43,6.02A5.292,5.292,0,0,1,11.356,16.6,5.292,5.292,0,0,1,11.43,6.02M7.939,11.3a3.446,3.446,0,1,0,3.408-3.49A3.447,3.447,0,0,0,7.939,11.3" transform="translate(96.25 84.305)"/>
    <path id="Path_23113" data-name="Path 23113" d="M13.808,6.69a.822.822,0,1,1,.838-.823.816.816,0,0,1-.838.823" transform="translate(98.891 84.721)" fill="#fff"/>
    <path id="Path_23114" data-name="Path 23114" d="M7.43,10.8a3.432,3.432,0,0,1,3.408-3.49A3.478,3.478,0,1,1,7.43,10.8" transform="translate(96.758 84.8)" fill="none" stroke="#fff" stroke-width="1.5"/>
  </g>
</svg>
