<svg xmlns="http://www.w3.org/2000/svg" width="27.906" height="31.2" viewBox="0 0 27.906 31.2">
  <g id="Group_8799" data-name="Group 8799" transform="translate(-27.025)">
    <g id="Group_4278" data-name="Group 4278" transform="translate(27.025 17.733)">
      <g id="Group_4277" data-name="Group 4277" transform="translate(0)">
        <path id="Path_3322" data-name="Path 3322" d="M51.033,296.057a.609.609,0,0,0-.609.609v5.972a.61.61,0,0,1-.609.609H28.853a.61.61,0,0,1-.609-.609v-11.03a.609.609,0,0,0-1.219,0v11.03a1.83,1.83,0,0,0,1.828,1.828H49.814a1.83,1.83,0,0,0,1.828-1.828v-5.972A.609.609,0,0,0,51.033,296.057Z" transform="translate(-27.025 -290.999)"/>
      </g>
    </g>
    <g id="Group_4280" data-name="Group 4280" transform="translate(27.025)">
      <g id="Group_4279" data-name="Group 4279" transform="translate(0)">
        <path id="Path_3323" data-name="Path 3323" d="M53.425,11.4a5.12,5.12,0,0,0-1.783-1.16V6.581h0a.608.608,0,0,0-.177-.431L45.493.179A.608.608,0,0,0,45.062,0V0H28.853a1.83,1.83,0,0,0-1.828,1.828V13.183a.609.609,0,1,0,1.219,0V1.828a.61.61,0,0,1,.609-.609h15.6V5.362A1.83,1.83,0,0,0,46.281,7.19h4.143V9.939A5.144,5.144,0,0,0,46.14,11.4l-8.685,8.685a.609.609,0,0,0,.862.862L47,12.266a3.932,3.932,0,0,1,5.561,5.561l-8.145,8.145A2.452,2.452,0,0,1,40.95,22.5l8.185-8.185a.955.955,0,1,1,1.351,1.351l-7.377,7.377a.609.609,0,0,0,.862.862l7.377-7.377a2.174,2.174,0,1,0-3.074-3.074l-8.185,8.185a3.671,3.671,0,0,0,5.191,5.191l8.145-8.145A5.157,5.157,0,0,0,53.425,11.4ZM46.281,5.971a.61.61,0,0,1-.609-.609V2.081l3.891,3.891Z" transform="translate(-27.025)"/>
      </g>
    </g>
    <g id="Group_4282" data-name="Group 4282" transform="translate(27.025 15.186)">
      <g id="Group_4281" data-name="Group 4281" transform="translate(0)">
        <path id="Path_3324" data-name="Path 3324" d="M28.068,249.388a.609.609,0,1,0,.179.431A.614.614,0,0,0,28.068,249.388Z" transform="translate(-27.028 -249.209)"/>
      </g>
    </g>
    <g id="Group_4284" data-name="Group 4284" transform="translate(35.325 21.744)">
      <g id="Group_4283" data-name="Group 4283" transform="translate(0)">
        <path id="Path_3325" data-name="Path 3325" d="M164.438,357.29l-.012-.037a.609.609,0,1,0-1.159.376l.012.037a.609.609,0,0,0,1.159-.376Z" transform="translate(-163.237 -356.831)"/>
      </g>
    </g>
  </g>
</svg>
