<svg id="Group_8008" data-name="Group 8008" xmlns="http://www.w3.org/2000/svg" xmlns:xlink="http://www.w3.org/1999/xlink" width="19.087" height="15.678" viewBox="0 0 19.087 15.678">
  <defs>
    <clipPath id="clip-path">
      <rect id="Rectangle_2323" data-name="Rectangle 2323" width="19.087" height="15.678"/>
    </clipPath>
  </defs>
  <g id="Group_8007" data-name="Group 8007" clip-path="url(#clip-path)">
    <path id="Path_23129" data-name="Path 23129" d="M.86,3.3a6.318,6.318,0,0,1,.072-1.73A7.57,7.57,0,0,1,1.284.737c.084-.146.164-.149.267-.024a11.146,11.146,0,0,0,1.11,1.172A11.276,11.276,0,0,0,6.584,4.227a12.719,12.719,0,0,0,2.487.561c.026,0,.052.007.078.009.3.022.311.009.277-.291A4.035,4.035,0,0,1,10.04,1.8a3.892,3.892,0,0,1,5.924-.757.651.651,0,0,0,.7.174A8.6,8.6,0,0,0,18.318.591c.1-.053.21-.093.381-.167A4.2,4.2,0,0,1,17.135,2.5a7.607,7.607,0,0,0,1.943-.459c.036.139-.048.211-.1.286a6.927,6.927,0,0,1-1.409,1.422.694.694,0,0,0-.3.628,11.736,11.736,0,0,1-1.585,5.783A11.018,11.018,0,0,1,13.47,12.9c-.057.052-.131.091-.151.175a4.061,4.061,0,0,0-.633.491.094.094,0,0,1-.077.065l-.868.566h0a.736.736,0,0,0-.305.167l0,0a12.2,12.2,0,0,1-2.408.935,12.745,12.745,0,0,1-2.167.345,11.969,11.969,0,0,1-2.586-.1,10.791,10.791,0,0,1-2.921-.881c-.466-.211-.9-.472-1.351-.716l0,0c0-.042,0-.083.006-.125a6.737,6.737,0,0,0,2.078-.045,7.744,7.744,0,0,0,3.4-1.364.168.168,0,0,0,.087-.151,9.828,9.828,0,0,1-1.254-.346,3.944,3.944,0,0,1-2.1-2.13,1.042,1.042,0,0,1-.036-.112c-.061-.207-.044-.227.162-.218.262.011.525.017.788.024a1.06,1.06,0,0,0,.5-.1c-.01-.082-.083-.1-.136-.113A3.9,3.9,0,0,1,1.357,7.6a.973.973,0,0,0-.1-.116v0A7.4,7.4,0,0,1,.778,6.141v0c-.009-.168-.011-.336-.03-.5-.024-.216.09-.236.255-.2H1a2.44,2.44,0,0,0,1.411.368A5.117,5.117,0,0,1,1.26,4.475h0l-.241-.551v0a3.9,3.9,0,0,0-.162-.636Z" transform="translate(0 0)"/>
  </g>
</svg>
