<svg id="Group_8791" data-name="Group 8791" xmlns="http://www.w3.org/2000/svg" xmlns:xlink="http://www.w3.org/1999/xlink" width="26.972" height="29.192" viewBox="0 0 26.972 29.192">
  <defs>
    <clipPath id="clip-path">
      <rect id="Rectangle_3206" data-name="Rectangle 3206" width="26.972" height="29.192" fill="none"/>
    </clipPath>
  </defs>
  <g id="Group_8791-2" data-name="Group 8791" clip-path="url(#clip-path)">
    <path id="Path_23399" data-name="Path 23399" d="M174.428,168.583c0-.167,0-.272,0-.3a.857.857,0,0,0-.009-.136c0-.018-.006-.037-.01-.056-.045-.2-.207-.515-.819-.829l-2.147-1.1a.794.794,0,0,0-.583-.061l-.032.01a.9.9,0,0,0-.107.045,13.428,13.428,0,0,1-1.038.993,1.6,1.6,0,0,1-1.353-.014,4.371,4.371,0,0,1-1.336-.9c-1.634-1.57-2.448-2.373-2.266-3.209a1.278,1.278,0,0,1,.2-.449l.507-.689a1.533,1.533,0,0,0,.215-.561,1.65,1.65,0,0,0-.085-.809c-.35-1.058-.863-2.723-1.387-2.952-.012-.005-.159-.069-.358-.146-.173-.068-.342-.129-.379-.141-.521-.166-1.631,1-2,1.65a3.763,3.763,0,0,0-.4.969,3.3,3.3,0,0,0-.029,1.387,12.412,12.412,0,0,0,2.076,4.54,11.828,11.828,0,0,0,5.062,4.4c2.69,1.219,4.3.746,4.35.729s.129-.048.129-.048l.072-.029s.077-.033.156-.071c.04-.019.212-.116.479-.27a2.2,2.2,0,0,0,1.1-1.945" transform="translate(-154.201 -150.669)"/>
    <path id="Path_23400" data-name="Path 23400" d="M.142,29.192,3.21,22.22A13.486,13.486,0,0,1,23.022,3.95a13.486,13.486,0,0,1-9.536,23.022,13.34,13.34,0,0,1-5.672-1.247ZM13.486,2.143a11.343,11.343,0,0,0-8.239,19.14l.489.517L4.355,24.937l3.506-1.584.459.235a11.221,11.221,0,0,0,5.166,1.242,11.344,11.344,0,0,0,0-22.687" transform="translate(0 0)"/>
  </g>
</svg>
