<svg xmlns="http://www.w3.org/2000/svg" width="16.51" height="16.72" viewBox="0 0 16.51 16.72">
  <path id="Subtraction_1" data-name="Subtraction 1" d="M-2541.244,15.72h0a7.666,7.666,0,0,1-3.991-1.122l-3.074.958a.3.3,0,0,1-.088.013.293.293,0,0,1-.208-.085.3.3,0,0,1-.081-.3l.044-.162.006-.022c.139-.516.563-2.086.816-2.982A7.9,7.9,0,0,1-2549,7.858a7.867,7.867,0,0,1,2.274-5.554,7.664,7.664,0,0,1,5.481-2.3,7.827,7.827,0,0,1,7.756,7.862,7.867,7.867,0,0,1-2.273,5.553A7.664,7.664,0,0,1-2541.244,15.72Zm-3.015-12.761a3.371,3.371,0,0,0-.628.072.305.305,0,0,0-.153.083A3.973,3.973,0,0,0-2546,7.063c.888,2.332,3.161,5.041,6.051,5.479a6.15,6.15,0,0,0,.926.076c.084.008.17.012.254.012a2.746,2.746,0,0,0,2.731-2.528c0-.021,0-.042.005-.063v-.012a.3.3,0,0,0-.144-.317c-.547-.307-1.013-.617-1.354-.843l-.008-.005-.06-.04a5.084,5.084,0,0,0-.531-.327.671.671,0,0,0-.356-.1.674.674,0,0,0-.434.159.354.354,0,0,0-.038.046,4.227,4.227,0,0,1-1.084,1.227,7.17,7.17,0,0,1-1.834-1.2,4,4,0,0,1-1.451-1.859c.536-.559.735-.917.735-1.322a8.585,8.585,0,0,0-1.131-2.33A.745.745,0,0,0-2544.259,2.959Z" transform="translate(2549.5 0.5)" stroke="rgba(0,0,0,0)" stroke-miterlimit="10" stroke-width="1"/>
</svg>
