<svg id="Group_8006" data-name="Group 8006" xmlns="http://www.w3.org/2000/svg" xmlns:xlink="http://www.w3.org/1999/xlink" width="19.087" height="13.338" viewBox="0 0 19.087 13.338">
  <defs>
    <clipPath id="clip-path">
      <rect id="Rectangle_2322" data-name="Rectangle 2322" width="19.087" height="13.338" fill="none"/>
    </clipPath>
  </defs>
  <g id="Group_8005" data-name="Group 8005" clip-path="url(#clip-path)">
    <path id="Path_23127" data-name="Path 23127" d="M.46,11.375a.036.036,0,0,0-.014-.058.907.907,0,0,1-.065-.189l.01-.03-.022-.022C.31,10.99.341,10.882.3,10.791a.1.1,0,0,0-.01-.116c-.1-.187.016-.4-.071-.587a.033.033,0,0,0-.011-.055C.126,9.9.214,9.739.139,9.6l.014-.028L.134,9.552C.022,9.223.156,8.876.056,8.546a.2.2,0,0,0,0-.2A2.82,2.82,0,0,1,.015,7.48c.013-1.048-.051-2.1.033-3.144a.192.192,0,0,0,.008-.194c.094-.22-.034-.468.086-.685l0,.008C.224,3.281.12,3.076.2,2.892a.259.259,0,0,0,.015-.21C.286,2.573.208,2.433.3,2.329l.017-.016L.3,2.292a.538.538,0,0,1,.067-.2A.035.035,0,0,0,.38,2.032c.056-.078,0-.191.08-.261l0,.005c.04-.048.023-.129.093-.16l-.006.007c.031-.054.012-.136.093-.162L.63,1.47c0-.049.035-.074.068-.1l0,0c.021-.032.051-.056.071-.089l0,0c.056-.033.036-.124.109-.145A2.741,2.741,0,0,1,2.148.417a10.549,10.549,0,0,1,1.3-.175q4.19-.316,8.391-.22c1.2.027,2.4.019,3.6.129a9.015,9.015,0,0,1,1.849.282L17.7.65c.3.02.446.256.608.456a3.062,3.062,0,0,1,.581,1.448A4.115,4.115,0,0,0,18.94,3a1.528,1.528,0,0,1-.037.293,33.289,33.289,0,0,1,.138,5.284,10.843,10.843,0,0,1-.367,2.73A2.29,2.29,0,0,1,16.9,12.915a12.12,12.12,0,0,1-2.027.237c-2.869.191-5.741.219-8.614.156-1.054-.023-2.108-.086-3.16-.161a4.8,4.8,0,0,1-1.436-.309l0,0a.6.6,0,0,0-.091-.064l-.01-.007c-.085-.083-.235-.064-.3-.186l.008.008a.117.117,0,0,1-.091-.084l.007.007a.17.17,0,0,1-.092-.078l.005,0a.263.263,0,0,1-.085-.084l0,0a.147.147,0,0,1-.074-.1l.007.007a.111.111,0,0,1-.089-.085l.007.007c-.046-.015-.08-.041-.078-.1L.8,12.1c-.084-.02-.062-.106-.1-.156l0,.007C.643,11.92.66,11.839.614,11.8v0c-.049-.045-.039-.118-.077-.168l0,.006c-.082-.07-.024-.183-.081-.261" transform="translate(0 0)" fill="#fff"/>
    <path id="Path_23128" data-name="Path 23128" d="M50.317,25.857c-.479.284-.875.523-1.275.756q-1.674.974-3.351,1.944c-.046.027-.095.049-.143.072-.24.114-.282.1-.287-.162-.013-.735-.016-1.469-.021-2.2q-.011-1.382-.018-2.765a.608.608,0,0,1,.069-.4c1.656.887,3.289,1.822,5.025,2.763" transform="translate(-37.655 -19.232)"/>
  </g>
</svg>
