<svg xmlns="http://www.w3.org/2000/svg" width="36.45" height="33.776" viewBox="0 0 36.45 33.776">
  <path id="Path_23195" data-name="Path 23195" d="M499.28,32.377A19.405,19.405,0,0,0,484.3,20.63a10.524,10.524,0,1,0-5.883,0,19.406,19.406,0,0,0-14.977,11.747.65.65,0,0,0,.6.9h34.636a.65.65,0,0,0,.6-.9M472.138,10.524a9.224,9.224,0,1,1,9.224,9.224,9.234,9.234,0,0,1-9.224-9.224m-7.092,21.451a18.1,18.1,0,0,1,32.632,0Z" transform="translate(-463.136 0.25)" fill="#161615" stroke="#000" stroke-width="0.5"/>
</svg>
