<svg xmlns="http://www.w3.org/2000/svg" width="46.699" height="40.473" viewBox="0 0 46.699 40.473">
  <g id="Group_8507" data-name="Group 8507" transform="translate(0.298 0.25)">
    <path id="Path_23193" data-name="Path 23193" d="M25.25,57.156a.792.792,0,0,0,.792-.792v-4.5a.792.792,0,1,0-1.584,0v4.5a.792.792,0,0,0,.792.792" transform="translate(-11.6 -24.51)" fill="#161615" stroke="#000" stroke-width="0.5"/>
    <path id="Path_23194" data-name="Path 23194" d="M45.318,38.93H41.745V21.889a6.029,6.029,0,0,0,3.439-2.639,6.16,6.16,0,0,0,.345-5.833L40.175,1.88A2.3,2.3,0,0,0,38.1.556H30.817a.79.79,0,0,0-.3,0H15.58a.8.8,0,0,0-.3,0H8A2.294,2.294,0,0,0,5.922,1.881L.573,13.42A6.16,6.16,0,0,0,.92,19.25a6.032,6.032,0,0,0,3.438,2.639V38.93H.8a.792.792,0,0,0,0,1.584H45.318a.792.792,0,0,0,0-1.584M6.065,22.132a6.415,6.415,0,0,0,4.542-1.869,6.489,6.489,0,0,0,1.122-1.485,6.5,6.5,0,0,0,1.122,1.485,6.416,6.416,0,0,0,4.2,1.86V38.93H5.943V22.13l.122,0M16.039,2.141h6.225V15.78c0,.018,0,.036,0,.055a4.869,4.869,0,0,1-9.734-.012Zm14.016,0,3.524,13.672a4.869,4.869,0,0,1-9.73.109V2.141ZM18.638,22.011a6.42,6.42,0,0,0,3.249-1.7,6.5,6.5,0,0,0,1.164-1.527,6.462,6.462,0,0,0,11.324-.006A6.484,6.484,0,0,0,35.5,20.263a6.416,6.416,0,0,0,4.542,1.869l.121,0v16.8H18.638Zm20.1-19.465,5.354,11.538a4.578,4.578,0,0,1-.258,4.336,4.373,4.373,0,0,1-3.627,2.124c-.055,0-.111,0-.168,0a4.887,4.887,0,0,1-4.87-4.82v-.012c0-.016,0-.031,0-.047s0-.024,0-.036,0-.025-.006-.037-.006-.03-.009-.045a.106.106,0,0,1,0-.013l-3.453-13.4H38.1a.7.7,0,0,1,.637.406M2.27,18.42a4.579,4.579,0,0,1-.259-4.334L7.359,2.547A.7.7,0,0,1,8,2.141H14.4L10.979,15.477a.8.8,0,0,0-.044.25,4.887,4.887,0,0,1-4.87,4.82c-.057,0-.113,0-.169,0A4.373,4.373,0,0,1,2.27,18.42" transform="translate(0 -0.541)" fill="#161615" stroke="#000" stroke-width="0.5"/>
  </g>
</svg>
