<svg xmlns="http://www.w3.org/2000/svg" xmlns:xlink="http://www.w3.org/1999/xlink" width="54" height="54" viewBox="0 0 54 54">
  <defs>
    <clipPath id="clip-path">
      <rect id="Rectangle_2422" data-name="Rectangle 2422" width="54" height="54" transform="translate(-0.406)" fill="none" stroke="#707070" stroke-width="2.3"/>
    </clipPath>
  </defs>
  <g id="Group_8448" data-name="Group 8448" transform="translate(0.406)">
    <g id="Group_8447" data-name="Group 8447" clip-path="url(#clip-path)">
      <path id="Path_23185" data-name="Path 23185" d="M12.7,5.466a3.35,3.35,0,1,1-6.7,0V4.35a3.35,3.35,0,0,1,6.7,0Z" transform="translate(0.699 0.117)" fill="none" stroke="#000" stroke-miterlimit="10" stroke-width="2.3"/>
      <line id="Line_11" data-name="Line 11" y2="35" transform="translate(5.594 19)" fill="none" stroke="#000" stroke-miterlimit="10" stroke-width="2.3"/>
      <line id="Line_12" data-name="Line 12" y1="18" transform="translate(9.594 36)" fill="none" stroke="#000" stroke-miterlimit="10" stroke-width="2.3"/>
      <path id="Path_23186" data-name="Path 23186" d="M13,52.2V19.816A7.816,7.816,0,0,1,20.816,12" transform="translate(1.515 1.398)" fill="none" stroke="#000" stroke-miterlimit="10" stroke-width="2.3"/>
      <path id="Path_23187" data-name="Path 23187" d="M20.816,51.729V20.466A4.466,4.466,0,0,0,16.35,16H13" transform="translate(1.515 1.865)" fill="none" stroke="#000" stroke-miterlimit="10" stroke-width="2.3"/>
      <path id="Path_23188" data-name="Path 23188" d="M28,51.729V20.466A4.466,4.466,0,0,1,32.466,16h3.35" transform="translate(3.263 1.865)" fill="none" stroke="#000" stroke-miterlimit="10" stroke-width="2.3"/>
      <path id="Path_23189" data-name="Path 23189" d="M35.816,52.2V19.816A7.816,7.816,0,0,0,28,12" transform="translate(3.263 1.398)" fill="none" stroke="#000" stroke-miterlimit="10" stroke-width="2.3"/>
      <path id="Path_23190" data-name="Path 23190" d="M42.7,5.466a3.35,3.35,0,1,1-6.7,0V4.35a3.35,3.35,0,0,1,6.7,0Z" transform="translate(4.195 0.117)" fill="none" stroke="#000" stroke-miterlimit="10" stroke-width="2.3"/>
      <line id="Line_13" data-name="Line 13" y1="35" transform="translate(47.594 19)" fill="none" stroke="#000" stroke-miterlimit="10" stroke-width="2.3"/>
      <line id="Line_14" data-name="Line 14" y1="18" transform="translate(43.594 36)" fill="none" stroke="#000" stroke-miterlimit="10" stroke-width="2.3"/>
      <path id="Path_23191" data-name="Path 23191" d="M1,32.1V16.466A4.465,4.465,0,0,1,5.465,12h42.43a4.465,4.465,0,0,1,4.466,4.466V32.1" transform="translate(0.117 1.398)" fill="none" stroke="#000" stroke-miterlimit="10" stroke-width="2.3"/>
      <path id="Path_23192" data-name="Path 23192" d="M28.7,5.466a3.35,3.35,0,1,1-6.7,0V4.35a3.35,3.35,0,0,1,6.7,0Z" transform="translate(2.564 0.117)" fill="none" stroke="#000" stroke-miterlimit="10" stroke-width="2.3"/>
      <line id="Line_15" data-name="Line 15" y1="18" transform="translate(26.594 36)" fill="none" stroke="#000" stroke-miterlimit="10" stroke-width="2.3"/>
    </g>
  </g>
</svg>
