<svg id="Group_8444" data-name="Group 8444" xmlns="http://www.w3.org/2000/svg" xmlns:xlink="http://www.w3.org/1999/xlink" width="31.112" height="52.804" viewBox="0 0 31.112 52.804">
  <defs>
    <clipPath id="clip-path">
      <rect id="Rectangle_2415" data-name="Rectangle 2415" width="31.112" height="52.804" fill="none"/>
    </clipPath>
  </defs>
  <g id="Group_8443" data-name="Group 8443" clip-path="url(#clip-path)">
    <path id="Path_23177" data-name="Path 23177" d="M19.821,74.962H6.357A6.357,6.357,0,0,1,.013,68.207L1.545,43.679A6.369,6.369,0,0,1,7.89,37.718h10.4a6.369,6.369,0,0,1,6.346,5.961l1.533,24.528a6.3,6.3,0,0,1-1.712,4.75,6.381,6.381,0,0,1-4.634,2m-11.931-35a4.117,4.117,0,0,0-4.1,3.855L2.255,68.348a4.11,4.11,0,0,0,4.1,4.367H19.821a4.111,4.111,0,0,0,4.1-4.367L22.392,43.82a4.118,4.118,0,0,0-4.1-3.855Z" transform="translate(0 -22.158)" fill="#100f0c"/>
    <path id="Path_23178" data-name="Path 23178" d="M27.928,25.327H17.538A1.123,1.123,0,0,1,16.414,24.2V18.9a6.11,6.11,0,0,1,6.1-6.1h.43a6.111,6.111,0,0,1,6.1,6.1v5.3a1.123,1.123,0,0,1-1.124,1.124M18.661,23.08H26.8V18.9a3.861,3.861,0,0,0-3.857-3.856h-.43A3.861,3.861,0,0,0,18.661,18.9Z" transform="translate(-9.643 -7.52)" fill="#100f0c"/>
    <rect id="Rectangle_2414" data-name="Rectangle 2414" width="2.247" height="4.834" transform="translate(11.751 1.57)" fill="#100f0c"/>
    <path id="Path_23179" data-name="Path 23179" d="M13.311,3.147,12.883.942C13.126.894,18.986-.2,34.652.034l-.035,2.247c-15.355-.233-21.248.856-21.306.867" transform="translate(-7.568 0)" fill="#100f0c"/>
    <path id="Path_23180" data-name="Path 23180" d="M13.775,78.789H3.119V76.542H13.775A1.826,1.826,0,0,0,15.6,74.718V64.207a1.826,1.826,0,0,0-1.824-1.824H4.228V60.136h9.546a4.075,4.075,0,0,1,4.07,4.071V74.718a4.075,4.075,0,0,1-4.07,4.071" transform="translate(-1.832 -35.328)" fill="#100f0c"/>
    <path id="Path_23181" data-name="Path 23181" d="M58.194,19.156c-1.224,0-4.476,0-4.476-3.988,0-3.007,3.217-7.3,3.583-7.784a1.125,1.125,0,0,1,1.786,0c.366.48,3.582,4.776,3.582,7.784,0,3.988-3.251,3.988-4.476,3.988m0-9.134c-.994,1.517-2.229,3.732-2.229,5.146,0,1.524.475,1.741,2.229,1.741s2.228-.217,2.228-1.741c0-1.413-1.236-3.629-2.228-5.146" transform="translate(-31.558 -4.079)" fill="#100f0c"/>
  </g>
</svg>
