<svg xmlns="http://www.w3.org/2000/svg" width="50.482" height="49.612" viewBox="0 0 50.482 49.612">
  <g id="Polygon_2" data-name="Polygon 2" fill="#fff">
    <path d="M 38.52529144287109 46.34882354736328 L 26.04969215393066 38.36422348022461 L 25.24109268188477 37.84671401977539 L 24.43249320983887 38.36422348022461 L 11.95689582824707 46.34882354736328 L 15.46933269500732 31.54184341430664 L 15.67813301086426 30.66161155700684 L 14.99699306488037 30.06625175476074 L 3.678897380828857 20.17341423034668 L 18.41402244567871 19.04803276062012 L 19.34961318969727 18.97658157348633 L 19.69468307495117 18.10401153564453 L 25.24109268188477 4.078864574432373 L 30.78750228881836 18.10400199890137 L 31.13257217407227 18.97657203674316 L 32.06816101074219 19.04802322387695 L 46.80329132080078 20.17341232299805 L 35.48519134521484 30.06625175476074 L 34.80405426025391 30.66161155700684 L 35.01285171508789 31.54184341430664 L 38.52529144287109 46.34882354736328 Z" stroke="none"/>
    <path d="M 25.24109268188477 8.157711029052734 L 20.39943313598633 20.4007625579834 L 7.357818603515625 21.39681053161621 L 17.34644317626953 30.12759208679199 L 14.27254867553711 43.08586502075195 L 25.24109268188477 36.06579208374023 L 36.20964050292969 43.08586502075195 L 33.1357421875 30.12759208679199 L 43.12436676025391 21.39681053161621 L 30.0827522277832 20.4007625579834 L 25.24109268188477 8.157711029052734 M 25.24109268188477 3.814697265625e-06 L 32.18239212036133 17.55238342285156 L 50.48218154907227 18.95002174377441 L 36.47235107421875 31.19563293457031 L 40.8409423828125 49.61180114746094 L 25.24109268188477 39.62762451171875 L 9.641242980957031 49.61180114746094 L 14.00983428955078 31.19563293457031 L 3.814697265625e-06 18.95002174377441 L 18.2997932434082 17.55238342285156 L 25.24109268188477 3.814697265625e-06 Z" stroke="none" fill="#000"/>
  </g>
</svg>
