<svg id="Group_8292" data-name="Group 8292" xmlns="http://www.w3.org/2000/svg" xmlns:xlink="http://www.w3.org/1999/xlink" width="53.093" height="53.093" viewBox="0 0 53.093 53.093">
  <defs>
    <clipPath id="clip-path">
      <rect id="Rectangle_2386" data-name="Rectangle 2386" width="53.093" height="53.093" fill="none"/>
    </clipPath>
  </defs>
  <g id="Group_8291" data-name="Group 8291" transform="translate(0 0)" clip-path="url(#clip-path)">
    <path id="Path_23162" data-name="Path 23162" d="M52.385,44.3,50.1,44.14,51.24,27.747a1.154,1.154,0,0,1,.106-.408L59.36,10.246,46,27.686l2.5,1.358A1.145,1.145,0,0,1,49.1,30.15L47.916,43.843l-2.277-.2L46.757,30.7l-3.02-1.639a1.148,1.148,0,0,1-.363-1.7L63.981.449a1.144,1.144,0,0,1,1.942,1.184L53.506,28.119Z" transform="translate(-25.185 0.29)" fill="#100f0c"/>
    <rect id="Rectangle_2384" data-name="Rectangle 2384" width="11.857" height="2.29" transform="translate(8.578 24.975)" fill="#100f0c"/>
    <rect id="Rectangle_2385" data-name="Rectangle 2385" width="13.608" height="2.29" transform="translate(8.578 29.733)" fill="#100f0c"/>
    <path id="Path_23163" data-name="Path 23163" d="M63.813,50.338l-1.386-1.821L79.419,35.529,66.426,41.472l-.949-2.083L87.738,29.206a1.145,1.145,0,0,1,1.167,1.952Z" transform="translate(-36.552 -16.861)" fill="#100f0c"/>
    <path id="Path_23164" data-name="Path 23164" d="M47.84,112.576A5.374,5.374,0,1,1,53.2,107.2a5.374,5.374,0,0,1-5.363,5.374m0-8.458a3.084,3.084,0,1,0,3.077,3.084,3.084,3.084,0,0,0-3.077-3.084" transform="translate(-24.795 -59.721)" fill="#100f0c"/>
    <path id="Path_23165" data-name="Path 23165" d="M5.363,66.353a5.374,5.374,0,1,1,5.363-5.374,5.374,5.374,0,0,1-5.363,5.374m0-8.457A3.083,3.083,0,1,0,8.44,60.98,3.084,3.084,0,0,0,5.363,57.9" transform="translate(0.238 -32.481)" fill="#100f0c"/>
  </g>
</svg>
