<svg id="Group_8290" data-name="Group 8290" xmlns="http://www.w3.org/2000/svg" xmlns:xlink="http://www.w3.org/1999/xlink" width="52.843" height="52.803" viewBox="0 0 52.843 52.803">
  <defs>
    <clipPath id="clip-path">
      <rect id="Rectangle_2383" data-name="Rectangle 2383" width="52.843" height="52.803" fill="none"/>
    </clipPath>
  </defs>
  <g id="Group_8289" data-name="Group 8289" clip-path="url(#clip-path)">
    <path id="Path_23151" data-name="Path 23151" d="M11.206,52.8a1.121,1.121,0,0,1-.8-.329l-9.2-9.194a4.155,4.155,0,0,1,0-5.875L37.444,1.178a4.253,4.253,0,0,1,5.875,0l9.195,9.194a1.124,1.124,0,0,1,0,1.59l-1.675,1.675a3.765,3.765,0,0,1-5.2,0l-3.78-3.78a1.464,1.464,0,0,0-2.02,0L9.9,39.8a1.43,1.43,0,0,0,0,2.02l3.78,3.78a3.681,3.681,0,0,1,0,5.2L12,52.474a1.119,1.119,0,0,1-.795.329M40.382,2.21a1.9,1.9,0,0,0-1.348.558L2.806,39a1.907,1.907,0,0,0,0,2.695l8.4,8.4.88-.88a1.429,1.429,0,0,0,0-2.02L8.306,43.41a3.683,3.683,0,0,1,0-5.2L38.249,8.267a3.765,3.765,0,0,1,5.2,0l3.78,3.78a1.462,1.462,0,0,0,2.019,0l.881-.88-8.4-8.4a1.893,1.893,0,0,0-1.347-.558" transform="translate(0 0)" fill="#100f0c"/>
    <path id="Path_23152" data-name="Path 23152" d="M30.484,98.748a1.119,1.119,0,0,1-.795-.329l-7.39-7.39a1.124,1.124,0,0,1,1.59-1.59l7.389,7.39a1.124,1.124,0,0,1-.8,1.919" transform="translate(-12.9 -52.322)" fill="#100f0c"/>
    <path id="Path_23153" data-name="Path 23153" d="M37.955,91.277a1.121,1.121,0,0,1-.8-.329l-7.389-7.39a1.124,1.124,0,0,1,1.59-1.589l7.389,7.39a1.124,1.124,0,0,1-.8,1.919" transform="translate(-17.287 -47.935)" fill="#100f0c"/>
    <path id="Path_23154" data-name="Path 23154" d="M45.425,83.807a1.121,1.121,0,0,1-.8-.329l-7.39-7.389a1.124,1.124,0,1,1,1.59-1.59l7.39,7.389a1.124,1.124,0,0,1-.795,1.919" transform="translate(-21.673 -43.55)" fill="#100f0c"/>
    <path id="Path_23155" data-name="Path 23155" d="M52.9,76.336a1.122,1.122,0,0,1-.8-.329l-7.389-7.389a1.124,1.124,0,0,1,1.589-1.59l7.39,7.389a1.124,1.124,0,0,1-.795,1.919" transform="translate(-26.06 -39.163)" fill="#100f0c"/>
    <path id="Path_23156" data-name="Path 23156" d="M60.366,68.866a1.12,1.12,0,0,1-.795-.329l-7.39-7.39a1.124,1.124,0,1,1,1.59-1.589l7.389,7.39a1.124,1.124,0,0,1-.8,1.919" transform="translate(-30.446 -34.776)" fill="#100f0c"/>
    <path id="Path_23157" data-name="Path 23157" d="M67.836,61.4a1.121,1.121,0,0,1-.8-.329l-7.39-7.39a1.124,1.124,0,0,1,1.59-1.59l7.39,7.39a1.124,1.124,0,0,1-.795,1.919" transform="translate(-34.832 -30.39)" fill="#100f0c"/>
    <path id="Path_23158" data-name="Path 23158" d="M75.307,53.925a1.119,1.119,0,0,1-.795-.329l-7.39-7.389a1.124,1.124,0,0,1,1.59-1.59l7.39,7.389a1.124,1.124,0,0,1-.8,1.919" transform="translate(-39.219 -26.004)" fill="#100f0c"/>
    <path id="Path_23159" data-name="Path 23159" d="M82.778,46.454a1.119,1.119,0,0,1-.795-.329l-7.39-7.39a1.124,1.124,0,1,1,1.59-1.59l7.389,7.39a1.124,1.124,0,0,1-.795,1.919" transform="translate(-43.606 -21.617)" fill="#100f0c"/>
    <path id="Path_23160" data-name="Path 23160" d="M90.247,38.984a1.121,1.121,0,0,1-.8-.329l-7.39-7.39a1.124,1.124,0,0,1,1.59-1.59l7.39,7.39a1.124,1.124,0,0,1-.795,1.919" transform="translate(-47.991 -17.231)" fill="#100f0c"/>
    <path id="Path_23161" data-name="Path 23161" d="M97.718,31.513a1.12,1.12,0,0,1-.795-.329l-7.39-7.39a1.124,1.124,0,0,1,1.59-1.59l7.39,7.39a1.124,1.124,0,0,1-.8,1.919" transform="translate(-52.378 -12.844)" fill="#100f0c"/>
  </g>
</svg>
