<?xml version="1.0" encoding="utf-8"?>
<!-- Generator: Adobe Illustrator 24.1.2, SVG Export Plug-In . SVG Version: 6.00 Build 0)  -->
<svg version="1.1" id="Layer_1" xmlns="http://www.w3.org/2000/svg" xmlns:xlink="http://www.w3.org/1999/xlink" x="0px" y="0px"
	 viewBox="0 0 132.6 62.1" style="enable-background:new 0 0 132.6 62.1;" xml:space="preserve">
<style type="text/css">
	.st0{clip-path:url(#SVGID_2_);}
	.st1{fill:#FFFFFF;}
	.st2{clip-path:url(#SVGID_4_);}
	.st3{fill:url(#Rectangle_2313_1_);}
	.st4{clip-path:url(#SVGID_6_);}
	.st5{fill:url(#Rectangle_2314_1_);}
	.st6{clip-path:url(#SVGID_8_);}
	.st7{clip-path:url(#SVGID_10_);}
	.st8{fill:url(#Rectangle_2317_1_);}
	.st9{clip-path:url(#SVGID_12_);}
	.st10{fill:url(#Rectangle_2318_1_);}
	.st11{clip-path:url(#SVGID_14_);}
</style>
<g id="Group_7978" transform="translate(-6.938 -7.93)">
	<g id="Group_7965" transform="translate(6.938 7.93)">
		<g>
			<defs>
				<rect id="SVGID_1_" y="0" width="132.6" height="62.1"/>
			</defs>
			<clipPath id="SVGID_2_">
				<use xlink:href="#SVGID_1_"  style="overflow:visible;"/>
			</clipPath>
			<g id="Group_7964" class="st0">
				<path id="Path_23118" class="st1" d="M127.5,57.7h-0.8v2.9h0.8V57.7z M126.7,55.8v0.7h3v4.1h0.8v-4.8L126.7,55.8z M125.1,58.1
					c0-0.2,0-0.4,0-0.7c0-0.2-0.1-0.4-0.1-0.6c-0.1-0.2-0.1-0.3-0.2-0.5c-0.1-0.1-0.2-0.3-0.4-0.4c-0.1-0.1-0.2-0.1-0.3-0.1
					c-0.1,0-0.2-0.1-0.3-0.1c-0.1,0-0.2,0-0.2,0c-0.1,0-0.1,0-0.2,0c-0.1,0-0.2,0-0.4,0c-0.1,0-0.3,0.1-0.4,0.2
					c-0.1,0.1-0.3,0.2-0.4,0.3c-0.1,0.1-0.2,0.3-0.3,0.4l-1.1-1h0l-0.3,0.8l1.1,0.9l-1,3.2h0.8l0.8-2.6c0-0.1,0.1-0.2,0.1-0.3
					s0.1-0.2,0.1-0.3s0.1-0.2,0.1-0.3c0-0.1,0.1-0.2,0.1-0.2c0.1-0.1,0.2-0.2,0.3-0.3c0.1-0.1,0.2-0.1,0.4-0.1c0,0,0.1,0,0.1,0
					c0.1,0,0.1,0,0.2,0c0.1,0,0.1,0,0.2,0.1c0.1,0,0.1,0.1,0.2,0.1c0.1,0.2,0.2,0.3,0.3,0.5c0.1,0.3,0.1,0.5,0.1,0.8l0.1,1.8h-1.7
					v0.8h2.5L125.1,58.1z M119.4,57.2c-0.1-0.3-0.2-0.5-0.4-0.8c-0.2-0.2-0.4-0.4-0.6-0.5c-0.3-0.1-0.6-0.2-0.9-0.2h-1.6l0,0.7h1.5
					c0.2,0,0.5,0,0.7,0.1c0.2,0.1,0.3,0.2,0.4,0.4c0.1,0.2,0.2,0.3,0.2,0.5c0.1,0.2,0.1,0.4,0.1,0.7c0,0.2,0,0.5-0.1,0.7
					c0,0.2-0.1,0.4-0.3,0.5c-0.1,0.1-0.3,0.3-0.5,0.3c-0.2,0.1-0.5,0.1-0.7,0.1h-1.3l0,0.7h1.5c0.3,0,0.6-0.1,0.9-0.2
					c0.3-0.1,0.5-0.3,0.7-0.5c0.2-0.2,0.3-0.5,0.4-0.8c0.1-0.3,0.1-0.6,0.1-0.9C119.5,57.9,119.4,57.5,119.4,57.2 M111.3,55.8v-1.5
					h-0.8l0,2.3h2.9l-1.4,3.4c0,0.1,0,0.1-0.1,0.2s-0.1,0.1-0.1,0.2s0,0.1-0.1,0.2s0,0.1,0,0.1h0.8l1.6-4.1c0-0.1,0.1-0.1,0.1-0.2
					s0.1-0.1,0.1-0.2s0-0.1,0.1-0.2s0-0.1,0-0.1l0-0.1L111.3,55.8z M106.2,55.8v-1.5h-0.8l0,2.3h2.9l-1.4,3.4c0,0.1,0,0.1-0.1,0.2
					s-0.1,0.1-0.1,0.2s0,0.1-0.1,0.2s0,0.1,0,0.1h0.8l1.6-4.1c0-0.1,0.1-0.1,0.1-0.2s0.1-0.1,0.1-0.2s0-0.1,0.1-0.2c0,0,0-0.1,0-0.1
					l0-0.1L106.2,55.8z M101.1,57.7h-0.8v2.9h0.8V57.7z M100.3,55.8v0.7h3v4.1h0.8v-4.8L100.3,55.8z M92.4,55.8v-1.5h-0.8l0,2.3h2.9
					l-1.4,3.4c0,0.1,0,0.1-0.1,0.2s-0.1,0.1-0.1,0.2s0,0.1-0.1,0.2s0,0.1,0,0.1h0.8l1.6-4.1l0.1-0.2c0-0.1,0.1-0.1,0.1-0.2
					s0-0.1,0.1-0.2s0-0.1,0-0.1l0-0.1L92.4,55.8z M90.3,58.1c0-0.2,0-0.4,0-0.7c0-0.2-0.1-0.4-0.1-0.6c-0.1-0.2-0.1-0.3-0.2-0.5
					c-0.1-0.1-0.2-0.3-0.4-0.4c-0.1-0.1-0.2-0.1-0.3-0.1c-0.1,0-0.2-0.1-0.3-0.1c-0.1,0-0.2,0-0.2,0c-0.1,0-0.1,0-0.2,0
					c-0.1,0-0.2,0-0.4,0c-0.1,0-0.3,0.1-0.4,0.2c-0.1,0.1-0.3,0.2-0.4,0.3c-0.1,0.1-0.2,0.3-0.3,0.4l-1.1-1h0l-0.3,0.8l1.1,0.9
					l-1,3.2h0.8l0.8-2.6c0-0.1,0.1-0.2,0.1-0.3s0.1-0.2,0.1-0.3s0.1-0.2,0.1-0.3c0-0.1,0.1-0.2,0.1-0.2c0.1-0.1,0.2-0.2,0.3-0.3
					c0.1-0.1,0.2-0.1,0.4-0.1c0,0,0.1,0,0.1,0c0.1,0,0.2,0,0.4,0.1c0.1,0,0.1,0.1,0.2,0.1c0.1,0.2,0.2,0.3,0.3,0.5
					c0.1,0.3,0.1,0.5,0.1,0.8l0.1,1.8h-1.7v0.8h2.5L90.3,58.1z M81.1,57.6h-0.8l0,4.6h0.8L81.1,57.6z M84.6,55.8h-4.3v0.7h3.4
					L82.3,60c0,0,0,0.1-0.1,0.1s0,0.1-0.1,0.2l-0.1,0.2c0,0,0,0.1,0,0.1h0.8l1.6-4.2c0-0.1,0.1-0.2,0.1-0.4
					C84.6,55.9,84.6,55.9,84.6,55.8L84.6,55.8z M78.1,55.8l-0.9,1.8L76,55.8h-1c0.3,0.5,0.6,0.9,0.8,1.3c0.3,0.4,0.5,0.7,0.7,1.1
					s0.4,0.6,0.6,0.9s0.4,0.6,0.6,0.8h-2.4v0.7h3.4V60c0,0,0,0,0-0.1c0,0,0-0.1,0-0.1c0,0,0-0.1-0.1-0.1l-1.1-1.6
					c0.2-0.4,0.4-0.7,0.6-1l0.2-0.4c0.1-0.1,0.2-0.3,0.2-0.4s0.1-0.2,0.2-0.3s0.1-0.2,0.1-0.3L78.1,55.8z M73.7,55.8H72v0.7l1,0v4.1
					h0.8V55.8z M70.6,55.8h-0.8v2.3c0,0.2,0,0.3-0.1,0.5c0,0.1-0.1,0.3-0.2,0.4c-0.1,0.1-0.1,0.2-0.2,0.3c-0.1,0.1-0.2,0.1-0.3,0.2
					c0,0-0.1,0-0.2,0.1l-0.2,0.1c-0.1,0-0.2,0.1-0.2,0.1l-0.8-3.9h-0.9l1,4.1l-1.2,0.4l0,0.8l2-0.7c0,0,0.1,0,0.1-0.1s0.1,0,0.2-0.1
					l0.2-0.1c0.1,0,0.1-0.1,0.2-0.1c0.2-0.1,0.3-0.2,0.4-0.3c0.1-0.1,0.3-0.3,0.4-0.4c0.1-0.2,0.2-0.4,0.3-0.6
					c0.1-0.2,0.1-0.5,0.1-0.7L70.6,55.8z M65.3,55.8h-1.7v0.7l1,0v4.1h0.8L65.3,55.8z M62.2,57.4c0-0.3,0-0.6-0.1-0.8
					c-0.1-0.2-0.2-0.4-0.3-0.5c-0.2-0.1-0.3-0.2-0.5-0.3c-0.2-0.1-0.5-0.1-0.7-0.1l-2.8,0l0,0.7h0.7l0,3.3h-1v0.8h1.7v-0.8l0-3.3
					h1.4c0.1,0,0.3,0,0.4,0.1c0.1,0,0.2,0.1,0.3,0.2c0.1,0.1,0.2,0.2,0.2,0.3c0.1,0.2,0.1,0.4,0.1,0.5l0,3h0.8L62.2,57.4z
					 M49.7,57.7h-0.8v2.9h0.8V57.7z M48.9,55.8v0.7h3v4.1h0.8v-4.8L48.9,55.8z M47.3,55.8h-0.8l0,2.5c0,0.2,0,0.4-0.1,0.6
					c-0.1,0.2-0.1,0.3-0.2,0.5c-0.1,0.1-0.1,0.1-0.2,0.2c-0.1,0.1-0.2,0.1-0.2,0.1c-0.1,0-0.1,0.1-0.2,0.1c-0.1,0-0.1,0-0.2,0h-0.5
					l0-2.9v-1.2H44l0,3.2l0,0.8h-1.4l-0.1-4.1h-0.8l0.2,4.8l3.4,0c0.1,0,0.2,0,0.4,0c0.1,0,0.3-0.1,0.4-0.1c0.1-0.1,0.3-0.1,0.4-0.2
					c0.1-0.1,0.2-0.2,0.3-0.3c0.1-0.2,0.3-0.4,0.3-0.7c0.1-0.3,0.1-0.6,0.1-0.9L47.3,55.8z M40.1,55.8h-1.7v0.7l0.9,0v1.8h0.8
					L40.1,55.8z M37.1,55.8h-0.8v2.3c0,0.2,0,0.3-0.1,0.5c0,0.1-0.1,0.3-0.2,0.4c-0.1,0.1-0.1,0.2-0.2,0.3c-0.1,0.1-0.2,0.1-0.3,0.2
					l-0.2,0.1l-0.2,0.1L35,59.7l-0.8-3.9h-0.9l1,4.1l-1.2,0.4l0,0.8l2-0.7c0,0,0.1,0,0.1-0.1s0.1,0,0.2-0.1s0.1-0.1,0.2-0.1
					s0.1-0.1,0.2-0.1c0.2-0.1,0.3-0.2,0.4-0.3c0.1-0.1,0.3-0.3,0.4-0.4c0.1-0.2,0.2-0.4,0.3-0.6c0.1-0.2,0.1-0.5,0.1-0.7L37.1,55.8z
					 M31.7,56.7c-0.1-0.2-0.2-0.4-0.3-0.5c-0.1-0.1-0.3-0.2-0.5-0.3c-0.2-0.1-0.4-0.1-0.6-0.1h-2v0.7h1.9c0.1,0,0.2,0,0.3,0
					c0.1,0,0.2,0.1,0.3,0.2c0.1,0.1,0.2,0.2,0.2,0.3c0.1,0.2,0.1,0.3,0.1,0.5v3h0.8v-3.1C31.8,57.2,31.7,56.9,31.7,56.7 M23.6,55.8
					h-1.7v0.7l1,0v4.1h0.8L23.6,55.8z M17.5,57.7h-0.8v2.9h0.8V57.7z M16.7,55.8v0.7h3v4.1h0.8v-4.8H16.7z M15.1,55.8h-1.7v0.7
					l0.9,0v1.8h0.8L15.1,55.8z M12.1,55.8h-1.7v0.7l1,0v4.1h0.8L12.1,55.8z M8.9,59.8l-0.1-4H5.4v1.6c0,0.2,0,0.3,0,0.5
					c0,0.3,0.3,0.5,0.5,0.6c0.2,0,0.4,0.1,0.6,0l0.4,0l0-0.7l-0.3,0c-0.1,0-0.1,0-0.2,0c-0.1,0-0.1,0-0.2-0.1
					c-0.1,0-0.1-0.1-0.1-0.2c0-0.1-0.1-0.2,0-0.2l0-0.8h2l0.1,3.3h-3l0,0.7h3.7L8.9,59.8z M3.7,55.8H2v0.7l0.9,0v1.8h0.8V55.8z"/>
			</g>
		</g>
	</g>
	<g id="Group_7967" transform="translate(121.528 24.668)">
		<g>
			<defs>
				<path id="SVGID_3_" d="M0,0c1.8,0.1,3.5,0.9,4.8,2.2h0l0,0C7,4.6,8.5,8.6,8.5,13.2S7,21.7,4.8,24.1c1.2,1.4,2.9,2.2,4.8,2.2
					c4.7,0,8.5-5.9,8.5-13.2S14.2,0,9.5,0L0,0z"/>
			</defs>
			<clipPath id="SVGID_4_">
				<use xlink:href="#SVGID_3_"  style="overflow:visible;"/>
			</clipPath>
			<g id="Group_7966" class="st2">
				
					<linearGradient id="Rectangle_2313_1_" gradientUnits="userSpaceOnUse" x1="-964.8502" y1="535.4728" x2="-964.7852" y2="535.4728" gradientTransform="matrix(18.023 0 0 -26.336 17266.7949 14115.3799)">
					<stop  offset="0" style="stop-color:#2B0000"/>
					<stop  offset="2.600000e-02" style="stop-color:#360002"/>
					<stop  offset="0.13" style="stop-color:#5E000A"/>
					<stop  offset="0.24" style="stop-color:#810010"/>
					<stop  offset="0.357" style="stop-color:#9D0016"/>
					<stop  offset="0.482" style="stop-color:#B3001A"/>
					<stop  offset="0.618" style="stop-color:#C3001D"/>
					<stop  offset="0.775" style="stop-color:#CC001F"/>
					<stop  offset="1" style="stop-color:#CF0020"/>
				</linearGradient>
				<rect id="Rectangle_2313" x="0" y="0" class="st3" width="18" height="26.3"/>
			</g>
		</g>
	</g>
	<g id="Group_7969" transform="translate(113.016 24.668)">
		<g>
			<defs>
				<path id="SVGID_5_" d="M0,13.2c0,7.3,3.8,13.2,8.5,13.2H18c-1.8-0.1-3.5-0.9-4.8-2.2h0l0,0c-2.3-2.4-3.8-6.4-3.8-10.9
					S11,4.6,13.3,2.2C12.1,0.9,10.3,0.1,8.5,0C3.8,0,0,5.9,0,13.2"/>
			</defs>
			<clipPath id="SVGID_6_">
				<use xlink:href="#SVGID_5_"  style="overflow:visible;"/>
			</clipPath>
			<g id="Group_7968" class="st4">
				
					<linearGradient id="Rectangle_2314_1_" gradientUnits="userSpaceOnUse" x1="-955.8617" y1="535.4728" x2="-955.7967" y2="535.4728" gradientTransform="matrix(18.021 0 0 -26.336 17111.3848 14115.3799)">
					<stop  offset="0" style="stop-color:#161615"/>
					<stop  offset="0.471" style="stop-color:#1E1E1D"/>
					<stop  offset="1" style="stop-color:#2E2E2D"/>
				</linearGradient>
				<rect id="Rectangle_2314" x="0" y="0" class="st5" width="18" height="26.3"/>
			</g>
		</g>
	</g>
	<g id="Group_7971" transform="translate(6.938 7.93)">
		<g>
			<defs>
				<rect id="SVGID_7_" y="0" width="132.6" height="62.1"/>
			</defs>
			<clipPath id="SVGID_8_">
				<use xlink:href="#SVGID_7_"  style="overflow:visible;"/>
			</clipPath>
			<g id="Group_7970" class="st6">
				<path id="Path_23121" class="st1" d="M59.9,22.8c0.6,0.5,0.9,1.3,0.9,2.1c0,0.4-0.1,0.8-0.2,1.1c-0.1,0.4-0.3,0.7-0.6,1
					c-0.3,0.3-0.7,0.5-1.1,0.6c-0.5,0.2-1,0.3-1.6,0.2H53v-5.9h4.4C58.3,22,59.2,22.3,59.9,22.8 M70.5,43.1c-1-1.1-1.9-2.1-2.8-3.1
					c-0.9-1-1.8-1.9-2.6-2.8c-0.8-0.9-1.6-1.7-2.4-2.5c-0.8-0.8-1.5-1.6-2.3-2.4c1-0.1,2-0.4,2.9-0.8c0.9-0.4,1.6-0.9,2.3-1.5
					c0.7-0.6,1.2-1.4,1.5-2.3c0.4-1,0.6-2,0.5-3.1c0.1-1.4-0.2-2.7-0.8-3.9c-0.5-1-1.2-1.8-2.1-2.4c-0.9-0.6-2-1-3.1-1.2
					c-1.2-0.2-2.5-0.3-3.7-0.3H46.2v26.3H53V32.6l9.1,10.5H70.5z"/>
				<path id="Path_23122" class="st1" d="M85.9,43c0.7,0,1.5-0.1,2.3-0.2s1.6-0.3,2.5-0.5c0.8-0.2,1.7-0.4,2.5-0.7V27.8l-11.1,0v4.6
					h4.5v5c-0.2,0-0.5,0.1-0.7,0.1s-0.5,0.1-0.8,0.1c-0.3,0-0.5,0-0.8,0.1s-0.4,0-0.6,0c-1.1,0-2.2-0.1-3.2-0.5
					c-0.8-0.3-1.5-0.9-2-1.5c-0.5-0.7-0.9-1.6-1-2.5c-0.2-1.1-0.3-2.2-0.3-3.3c0-1.1,0.1-2.2,0.3-3.3c0.2-0.9,0.5-1.7,1-2.5
					c0.5-0.7,1.2-1.2,2-1.6c1-0.4,2.1-0.6,3.2-0.5c0.8,0,2,0.1,3.5,0.2c1.8,0.2,3.5,0.4,5.3,0.8v-5.5c-0.7-0.1-1.4-0.3-2.1-0.4
					s-1.5-0.2-2.2-0.3c-0.8-0.1-1.5-0.1-2.2-0.1c-0.7,0-1.4,0-2.1,0c-1.9,0-3.9,0.2-5.7,0.8c-1.6,0.5-3,1.3-4.2,2.4
					c-1.2,1.2-2.1,2.6-2.6,4.1C70.7,26,70.4,28,70.4,30c0,1.9,0.2,3.7,0.8,5.5c0.5,1.5,1.3,2.9,2.4,4.1c1.2,1.2,2.6,2,4.2,2.6
					c2,0.6,4,0.9,6.1,0.9C84.5,43.1,85.2,43,85.9,43"/>
			</g>
		</g>
	</g>
	<rect id="Rectangle_2316" x="103.1" y="24.7" class="st1" width="6.8" height="26.3"/>
	<path id="Path_23123" class="st1" d="M50.1,51v-5.5H36.7v-5.3h12.4v-5.1H36.7v-4.9h13.3v-5.5H29.9V51H50.1z"/>
	<g id="Group_7973" transform="translate(12.477 7.931)">
		<g>
			<defs>
				<path id="SVGID_9_" d="M13.6,0C10,0.1,5.6,2.9,2.7,7.6c-3.8,6.2-3.6,13.2,0.4,15.7c0.1,0.1,8.1,5,8.1,5c-1.5-1-2.6-2.6-2.9-4.4
					h0l0,0h0c-0.7-3.2,0.1-7.4,2.5-11.3s5.7-6.5,8.9-7.4c-0.3-1.8-1.4-3.4-2.9-4.4C16,0.3,14.9,0,13.8,0H13.6z"/>
			</defs>
			<clipPath id="SVGID_10_">
				<use xlink:href="#SVGID_9_"  style="overflow:visible;"/>
			</clipPath>
			<g id="Group_7972" class="st7">
				
					<linearGradient id="Rectangle_2317_1_" gradientUnits="userSpaceOnUse" x1="-897.759" y1="539.9301" x2="-897.725" y2="539.9301" gradientTransform="matrix(18.2632 -29.8439 -27.7447 -16.9786 31373.4844 -17591.6348)">
					<stop  offset="0" style="stop-color:#2B0000"/>
					<stop  offset="2.600000e-02" style="stop-color:#360002"/>
					<stop  offset="0.13" style="stop-color:#5E000A"/>
					<stop  offset="0.24" style="stop-color:#810010"/>
					<stop  offset="0.357" style="stop-color:#9D0016"/>
					<stop  offset="0.482" style="stop-color:#B3001A"/>
					<stop  offset="0.618" style="stop-color:#C3001D"/>
					<stop  offset="0.775" style="stop-color:#CC001F"/>
					<stop  offset="1" style="stop-color:#CF0020"/>
				</linearGradient>
				<polygon id="Rectangle_2317" class="st8" points="-13.7,20.6 4.6,-9.3 32.4,7.7 14.1,37.5 				"/>
			</g>
		</g>
	</g>
	<g id="Group_7975" transform="translate(7.098 31.259)">
		<g>
			<defs>
				<path id="SVGID_11_" d="M11.4,4.4L11.4,4.4L11.4,4.4c0.7,3.2-0.1,7.4-2.5,11.3S3.2,22.2,0,23c0.3,1.8,1.4,3.4,2.9,4.4
					c4,2.5,10.3-0.6,14.1-6.8S20.6,7.4,16.6,5l0,0L8.5,0C10.1,1,11.1,2.6,11.4,4.4"/>
			</defs>
			<clipPath id="SVGID_12_">
				<use xlink:href="#SVGID_11_"  style="overflow:visible;"/>
			</clipPath>
			<g id="Group_7974" class="st9">
				
					<linearGradient id="Rectangle_2318_1_" gradientUnits="userSpaceOnUse" x1="-850.6676" y1="531.1697" x2="-850.6116" y2="531.1697" gradientTransform="matrix(20.821 0 0 -29.88 17703.4844 15886.2891)">
					<stop  offset="0" style="stop-color:#161615"/>
					<stop  offset="0.471" style="stop-color:#1E1E1D"/>
					<stop  offset="1" style="stop-color:#2E2E2D"/>
				</linearGradient>
				<rect id="Rectangle_2318" x="0" y="0" class="st10" width="20.8" height="29.9"/>
			</g>
		</g>
	</g>
	<g id="Group_7977" transform="translate(6.938 7.93)">
		<g>
			<defs>
				<rect id="SVGID_13_" y="0" width="132.6" height="62.1"/>
			</defs>
			<clipPath id="SVGID_14_">
				<use xlink:href="#SVGID_13_"  style="overflow:visible;"/>
			</clipPath>
			<g id="Group_7976" class="st11">
				<path id="Path_23126" class="st1" d="M127.6,50.3c-0.1,0.1-0.1,0.2-0.2,0.3c-0.1,0.1-0.2,0.1-0.4,0.2c-0.2,0-0.3,0.1-0.5,0.1
					c-0.2,0-0.3,0-0.5-0.1c-0.1,0-0.3-0.1-0.4-0.2c-0.1-0.1-0.2-0.2-0.2-0.3c-0.1-0.1-0.1-0.3-0.1-0.4c0-0.1,0-0.3,0.1-0.4
					c0.1-0.1,0.1-0.2,0.2-0.3c0.1-0.1,0.2-0.1,0.4-0.2c0.1,0,0.3-0.1,0.5-0.1c0.2,0,0.3,0,0.5,0.1c0.1,0,0.3,0.1,0.4,0.2
					c0.1,0.1,0.2,0.2,0.2,0.3c0.1,0.1,0.1,0.3,0.1,0.4C127.7,50.1,127.7,50.2,127.6,50.3 M127.4,48c-0.1,0.1-0.1,0.2-0.2,0.2
					c-0.1,0.1-0.2,0.1-0.3,0.1c-0.1,0-0.2,0.1-0.4,0c-0.1,0-0.3,0-0.4-0.1c-0.1,0-0.2-0.1-0.3-0.2c-0.1-0.1-0.2-0.1-0.2-0.2
					c-0.1-0.1-0.1-0.2-0.1-0.3c0-0.1,0-0.2,0.1-0.3c0.1-0.1,0.1-0.2,0.2-0.2c0.1-0.1,0.2-0.1,0.3-0.1c0.1,0,0.2-0.1,0.4-0.1
					c0.1,0,0.2,0,0.4,0c0.1,0,0.2,0.1,0.3,0.1c0.1,0.1,0.2,0.1,0.2,0.2c0.1,0.1,0.1,0.2,0.1,0.3C127.5,47.8,127.5,47.9,127.4,48
					 M128.2,49.2c-0.2-0.2-0.5-0.4-0.8-0.5c0.1,0,0.2-0.1,0.4-0.2c0.2-0.1,0.3-0.3,0.4-0.6c0.1-0.3,0.1-0.6-0.1-0.9
					c-0.1-0.2-0.2-0.3-0.4-0.4c-0.2-0.1-0.4-0.2-0.6-0.3c-0.2-0.1-0.4-0.1-0.7-0.1c-0.2,0-0.4,0-0.7,0.1c-0.2,0.1-0.4,0.1-0.6,0.3
					c-0.2,0.1-0.3,0.3-0.4,0.4c-0.1,0.2-0.1,0.4-0.1,0.6c0,0.1,0,0.2,0.1,0.3c0,0.1,0.1,0.2,0.2,0.3c0.1,0.1,0.2,0.2,0.3,0.2
					c0.1,0.1,0.2,0.1,0.4,0.2c-0.3,0.1-0.6,0.2-0.8,0.5c-0.2,0.2-0.3,0.5-0.3,0.8c0,0.2,0,0.5,0.2,0.7c0.1,0.2,0.2,0.4,0.4,0.5
					c0.2,0.1,0.4,0.2,0.6,0.3c0.5,0.1,1,0.1,1.5,0c0.2-0.1,0.4-0.2,0.6-0.3c0.2-0.1,0.3-0.3,0.4-0.5c0.1-0.2,0.2-0.4,0.2-0.7
					C128.5,49.7,128.4,49.4,128.2,49.2 M117.1,46.3h-3.8V47h2.8c-0.6,0.6-1.1,1.4-1.4,2.2c-0.2,0.4-0.3,0.7-0.4,1.1
					c-0.1,0.4-0.2,0.7-0.2,1.1h0.8c0-0.3,0.1-0.5,0.1-0.8c0.1-0.3,0.1-0.6,0.2-0.8c0.1-0.3,0.2-0.6,0.3-0.8c0.1-0.3,0.3-0.5,0.4-0.8
					c0.2-0.2,0.3-0.5,0.5-0.7c0.2-0.2,0.4-0.4,0.6-0.6L117.1,46.3z M104.6,48.5c-0.1,0.1-0.2,0.1-0.3,0.2c-0.1,0-0.2,0.1-0.3,0.1
					c-0.1,0-0.2,0-0.3,0c-0.1,0-0.3,0-0.4-0.1c-0.1,0-0.2-0.1-0.4-0.2c-0.1-0.1-0.2-0.2-0.2-0.3c-0.1-0.1-0.1-0.3-0.1-0.4
					c0-0.1,0-0.3,0.1-0.4c0-0.1,0.1-0.2,0.2-0.3c0.1-0.1,0.2-0.2,0.3-0.2c0.1-0.1,0.3-0.1,0.4-0.1c0.2,0,0.4,0,0.5,0.1
					c0.1,0.1,0.3,0.2,0.4,0.3c0.1,0.1,0.2,0.3,0.2,0.5c0,0.2,0,0.3,0,0.5C104.7,48.4,104.7,48.4,104.6,48.5 M105.7,48.4
					c0-0.1,0-0.2,0-0.4s0-0.3-0.1-0.4c0-0.1-0.1-0.2-0.1-0.3c-0.1-0.2-0.2-0.3-0.3-0.4c-0.1-0.1-0.2-0.3-0.4-0.4
					c-0.2-0.1-0.3-0.2-0.5-0.2c-0.2-0.1-0.4-0.1-0.7-0.1c-0.3,0-0.5,0-0.8,0.1c-0.2,0.1-0.4,0.2-0.6,0.4c-0.2,0.2-0.3,0.3-0.4,0.5
					c-0.1,0.2-0.1,0.4-0.1,0.7c0,0.2,0,0.4,0.1,0.6c0.1,0.2,0.2,0.4,0.4,0.5c0.2,0.1,0.4,0.3,0.6,0.3c0.2,0.1,0.5,0.1,0.8,0.1
					c0.2,0,0.5,0,0.7-0.1c0.2-0.1,0.4-0.2,0.5-0.4c0,0.1,0,0.2,0,0.3c0,0.1,0,0.2-0.1,0.4c0,0.1-0.1,0.2-0.1,0.4
					c0,0.1-0.1,0.2-0.1,0.3c-0.1,0.1-0.1,0.2-0.2,0.2c-0.1,0.1-0.2,0.1-0.2,0.1c-0.1,0-0.2,0.1-0.3,0.1c-0.1,0-0.2,0-0.3,0
					c-0.1,0-0.2,0-0.3,0c-0.1,0-0.2,0-0.3-0.1c-0.1,0-0.2-0.1-0.4-0.1c-0.1,0-0.3-0.1-0.4-0.2l-0.1,0.7c0.1,0.1,0.2,0.1,0.3,0.1
					c0.1,0,0.2,0.1,0.4,0.1c0.1,0,0.2,0,0.4,0.1s0.2,0,0.4,0c0.4,0,0.7-0.1,1-0.2c0.3-0.2,0.5-0.4,0.7-0.7c0.1-0.1,0.1-0.3,0.2-0.4
					c0-0.2,0.1-0.3,0.1-0.5c0-0.2,0.1-0.3,0.1-0.5s0-0.3,0-0.4C105.7,48.6,105.7,48.5,105.7,48.4 M93.2,46.2h-0.5
					c-0.1,0.1-0.2,0.3-0.3,0.4c-0.1,0.1-0.3,0.3-0.4,0.4c-0.2,0.1-0.3,0.2-0.5,0.3c-0.2,0.1-0.4,0.2-0.6,0.3v0.8
					c0.1,0,0.3-0.1,0.4-0.2c0.1-0.1,0.3-0.1,0.4-0.2c0.1-0.1,0.3-0.2,0.4-0.3c0.1-0.1,0.2-0.2,0.3-0.3v4h0.8L93.2,46.2z M73,50.8
					h-3.3v-1.7h3.1v-0.6h-3.1v-1.5H73v-0.6h-4.1v5.2H73V50.8z M61,50.6c-0.2,0-0.3,0.1-0.5,0.1s-0.3,0.1-0.4,0.1s-0.3,0-0.4,0
					s-0.3,0-0.4,0c-0.3,0-0.6,0-0.9-0.2c-0.2-0.1-0.5-0.2-0.7-0.4c-0.2-0.2-0.3-0.4-0.4-0.7c-0.1-0.3-0.2-0.5-0.2-0.8
					c0-0.3,0-0.5,0.1-0.8c0.1-0.2,0.2-0.5,0.4-0.6c0.2-0.2,0.4-0.3,0.7-0.4c0.3-0.1,0.6-0.2,0.9-0.2c0.1,0,0.3,0,0.4,0s0.2,0,0.4,0
					s0.3,0,0.4,0.1c0.1,0,0.3,0.1,0.5,0.1v-0.7c-0.1,0-0.2-0.1-0.4-0.1s-0.2-0.1-0.4-0.1s-0.3,0-0.4,0s-0.3,0-0.5,0
					c-0.4,0-0.8,0.1-1.2,0.2c-0.3,0.1-0.7,0.3-0.9,0.5c-0.3,0.2-0.5,0.5-0.6,0.8c-0.2,0.4-0.2,0.7-0.2,1.1c-0.1,0.8,0.2,1.5,0.7,2
					c0.6,0.5,1.4,0.7,2.2,0.7c0.3,0,0.6,0,0.9-0.1c0.3,0,0.5-0.1,0.8-0.2L61,50.6z M48.7,46.2h-0.8v4l-3-4h-0.8v5.2h0.8v-4l3,4h0.8
					L48.7,46.2z M36.1,46.2h-0.8v5.2h0.8L36.1,46.2z M27.3,49.4c-0.1-0.2-0.2-0.3-0.4-0.4c-0.2-0.1-0.3-0.2-0.5-0.3
					c-0.2-0.1-0.4-0.2-0.6-0.2l-1.1-0.3c-0.3,0-0.5-0.1-0.7-0.3c-0.1-0.1-0.2-0.3-0.2-0.5c0-0.1,0-0.2,0.1-0.3
					c0.1-0.1,0.2-0.2,0.3-0.2c0.1-0.1,0.2-0.1,0.4-0.1c0.2,0,0.3,0,0.5,0c0.2,0,0.3,0,0.5,0c0.2,0,0.3,0,0.5,0.1s0.3,0.1,0.5,0.1
					s0.3,0.1,0.5,0.1l0.1-0.7c-0.1,0-0.3-0.1-0.4-0.1s-0.3-0.1-0.5-0.1s-0.3,0-0.5-0.1s-0.4,0-0.6,0c-0.3,0-0.6,0-0.9,0.1
					c-0.2,0.1-0.4,0.2-0.6,0.3c-0.2,0.1-0.3,0.3-0.4,0.4c-0.1,0.2-0.1,0.4-0.1,0.6c0,0.3,0.2,0.7,0.4,0.9c0.3,0.3,0.8,0.5,1.2,0.5
					l1,0.2c0.1,0,0.3,0.1,0.4,0.1c0.1,0,0.2,0.1,0.3,0.2c0.1,0.1,0.2,0.1,0.2,0.2c0.1,0.1,0.1,0.2,0.1,0.3c0,0.1,0,0.2-0.1,0.3
					c-0.1,0.1-0.2,0.2-0.3,0.3c-0.1,0.1-0.3,0.1-0.4,0.2c-0.2,0-0.3,0.1-0.5,0.1c-0.2,0-0.4,0-0.6,0c-0.2,0-0.4-0.1-0.6-0.1
					s-0.4-0.1-0.6-0.1s-0.4-0.1-0.5-0.1l-0.1,0.7c0.2,0,0.4,0.1,0.5,0.1s0.4,0.1,0.6,0.1s0.4,0.1,0.6,0.1s0.4,0,0.6,0
					c0.3,0,0.6,0,0.9-0.1c0.2-0.1,0.5-0.2,0.7-0.3c0.2-0.1,0.3-0.3,0.4-0.5c0.1-0.2,0.2-0.4,0.1-0.6C27.4,49.8,27.4,49.6,27.3,49.4"
					/>
			</g>
		</g>
	</g>
</g>
</svg>
