<svg xmlns="http://www.w3.org/2000/svg" xmlns:xlink="http://www.w3.org/1999/xlink" width="132.613" height="62.122" viewBox="0 0 132.613 62.122">
  <defs>
    <clipPath id="clip-path">
      <rect id="Rectangle_2312" data-name="Rectangle 2312" width="132.613" height="62.122" fill="none"/>
    </clipPath>
    <clipPath id="clip-path-2">
      <path id="Path_23119" data-name="Path 23119" d="M104.915,22.241a6.6,6.6,0,0,1,4.751,2.241h.007l0,0c2.269,2.366,3.759,6.376,3.759,10.925s-1.49,8.558-3.759,10.924a6.617,6.617,0,0,0,4.755,2.244c4.7,0,8.514-5.9,8.514-13.168s-3.812-13.168-8.514-13.168Z" transform="translate(-104.915 -22.241)" fill="none"/>
    </clipPath>
    <linearGradient id="linear-gradient" x1="-6.808" y1="1.723" x2="-6.743" y2="1.723" gradientUnits="objectBoundingBox">
      <stop offset="0" stop-color="#2b0000"/>
      <stop offset="0.026" stop-color="#360002"/>
      <stop offset="0.13" stop-color="#5e000a"/>
      <stop offset="0.24" stop-color="#810010"/>
      <stop offset="0.357" stop-color="#9d0016"/>
      <stop offset="0.482" stop-color="#b3001a"/>
      <stop offset="0.618" stop-color="#c3001d"/>
      <stop offset="0.775" stop-color="#cc001f"/>
      <stop offset="1" stop-color="#cf0020"/>
    </linearGradient>
    <clipPath id="clip-path-3">
      <path id="Path_23120" data-name="Path 23120" d="M97.637,35.409c0,7.272,3.81,13.168,8.512,13.168h9.509a6.614,6.614,0,0,1-4.751-2.241H110.9l0,0c-2.265-2.366-3.758-6.375-3.758-10.924s1.492-8.559,3.758-10.925a6.6,6.6,0,0,0-4.753-2.243c-4.7,0-8.512,5.9-8.512,13.168" transform="translate(-97.637 -22.241)" fill="none"/>
    </clipPath>
    <linearGradient id="linear-gradient-2" x1="-6.337" y1="1.723" x2="-6.272" y2="1.723" gradientUnits="objectBoundingBox">
      <stop offset="0" stop-color="#161615"/>
      <stop offset="0.471" stop-color="#1e1e1d"/>
      <stop offset="1" stop-color="#2e2e2d"/>
    </linearGradient>
    <clipPath id="clip-path-5">
      <path id="Path_23124" data-name="Path 23124" d="M25.305,7.931c-3.676.05-8.007,2.932-10.889,7.631-3.8,6.2-3.63,13.22.379,15.674.094.058,8.11,4.969,8.11,4.969a6.6,6.6,0,0,1-2.881-4.393l-.007,0h0l.007,0c-.7-3.2.127-7.4,2.5-11.276s5.741-6.519,8.91-7.352a6.6,6.6,0,0,0-2.879-4.4A5.931,5.931,0,0,0,25.5,7.931Z" transform="translate(-11.674 -7.931)" fill="none"/>
    </clipPath>
    <linearGradient id="linear-gradient-3" x1="-0.158" y1="1.975" x2="-0.124" y2="1.975" xlink:href="#linear-gradient"/>
    <clipPath id="clip-path-6">
      <path id="Path_23125" data-name="Path 23125" d="M18.49,32.27l0,0h0c.7,3.2-.126,7.4-2.5,11.276S10.245,50.069,7.075,50.9a6.6,6.6,0,0,0,2.881,4.4c4.008,2.458,10.34-.579,14.14-6.78s3.629-13.217-.378-15.673h0l-8.11-4.968A6.6,6.6,0,0,1,18.49,32.27" transform="translate(-7.075 -27.877)" fill="none"/>
    </clipPath>
    <linearGradient id="linear-gradient-4" x1="-0.397" y1="1.297" x2="-0.341" y2="1.297" xlink:href="#linear-gradient-2"/>
  </defs>
  <g id="Group_7978" data-name="Group 7978" transform="translate(-6.938 -7.93)">
    <g id="Group_7965" data-name="Group 7965" transform="translate(6.938 7.93)">
      <g id="Group_7964" data-name="Group 7964" clip-path="url(#clip-path)">
        <path id="Path_23118" data-name="Path 23118" d="M132.433,57.789h-.8v2.858h.8Zm-.8-1.95v.742H134.6v4.067h.76V55.84ZM130,58.124a5.361,5.361,0,0,0-.049-.66,2.916,2.916,0,0,0-.136-.581,1.958,1.958,0,0,0-.247-.483,1.45,1.45,0,0,0-.384-.366,1.245,1.245,0,0,0-.278-.14,1.636,1.636,0,0,0-.27-.073,2.216,2.216,0,0,0-.233-.029c-.071,0-.126-.006-.171-.006a1.449,1.449,0,0,0-.357.048,1.562,1.562,0,0,0-.373.151,1.438,1.438,0,0,0-.367.284,2.71,2.71,0,0,0-.317.4l-1.127-1.012h-.019l-.336.848,1.13.927-1.016,3.215h.814l.757-2.585c.025-.085.054-.18.087-.281s.069-.2.11-.3.08-.193.122-.283a1.827,1.827,0,0,1,.135-.234.988.988,0,0,1,.337-.325.769.769,0,0,1,.378-.108c.039,0,.084,0,.138,0a.942.942,0,0,1,.174.033.841.841,0,0,1,.182.078.688.688,0,0,1,.181.146,1.216,1.216,0,0,1,.255.523,4.023,4.023,0,0,1,.1.792l.089,1.784h-1.731v.756h2.487Zm-5.711-.84a2.152,2.152,0,0,0-.375-.766,1.708,1.708,0,0,0-.639-.5,2.153,2.153,0,0,0-.913-.179h-1.642l.011.749,1.483,0a1.56,1.56,0,0,1,.668.127,1.163,1.163,0,0,1,.441.352,1.443,1.443,0,0,1,.243.53,2.825,2.825,0,0,1,.073.663,2.673,2.673,0,0,1-.078.675,1.36,1.36,0,0,1-.257.517,1.158,1.158,0,0,1-.462.332,1.816,1.816,0,0,1-.7.118h-1.349l.008.749h1.532a2.028,2.028,0,0,0,.91-.192,1.887,1.887,0,0,0,.65-.518,2.209,2.209,0,0,0,.389-.76,3.236,3.236,0,0,0,.13-.92,3.751,3.751,0,0,0-.122-.973m-8.006-1.441,0-1.532h-.771l.022,2.27h2.912l-1.375,3.428c-.025.058-.048.12-.075.187s-.053.129-.076.189-.044.116-.062.164-.029.081-.034.1h.8l1.642-4.07c.027-.069.056-.14.084-.215s.053-.144.074-.207.04-.118.053-.164.023-.075.026-.088l.007-.061Zm-5.124,0,0-1.532h-.772l.023,2.27h2.911l-1.377,3.428c-.022.058-.047.12-.073.187s-.053.129-.077.189-.046.116-.063.164-.028.081-.034.1h.807l1.642-4.07c.028-.069.054-.14.082-.215s.053-.144.076-.207.037-.118.053-.164a.881.881,0,0,0,.023-.088l.009-.061Zm-5.132,1.946h-.8v2.858h.8Zm-.8-1.95v.742h2.97v4.067h.76V55.84Zm-7.882,0,0-1.532h-.773l.023,2.27h2.912l-1.378,3.428c-.021.058-.047.12-.073.187s-.051.129-.076.189-.046.116-.064.164-.029.081-.034.1h.807l1.642-4.07.084-.215c.028-.075.051-.144.073-.207s.041-.118.055-.164.021-.075.023-.088l.008-.061ZM95.19,58.124a6.147,6.147,0,0,0-.049-.66A3,3,0,0,0,95,56.883a1.96,1.96,0,0,0-.248-.483,1.394,1.394,0,0,0-.382-.366,1.262,1.262,0,0,0-.277-.14,1.636,1.636,0,0,0-.27-.073,2.2,2.2,0,0,0-.234-.029c-.07,0-.126-.006-.17-.006a1.458,1.458,0,0,0-.358.048,1.573,1.573,0,0,0-.372.151,1.489,1.489,0,0,0-.37.284,2.861,2.861,0,0,0-.315.4l-1.129-1.012h-.02l-.333.848,1.127.927L90.64,60.648h.813l.756-2.585c.026-.085.055-.18.089-.281s.068-.2.108-.3.08-.193.123-.283a1.981,1.981,0,0,1,.133-.234A.991.991,0,0,1,93,56.64a.768.768,0,0,1,.377-.108c.039,0,.085,0,.139,0a.9.9,0,0,1,.358.111.745.745,0,0,1,.18.146,1.216,1.216,0,0,1,.255.523,4.1,4.1,0,0,1,.1.792l.085,1.784H92.769v.756h2.485Zm-9.142-.487h-.771l.041,4.551h.767Zm3.539-1.794h-4.34l0,.738h3.362l-1.379,3.482c-.015.037-.033.085-.053.143s-.041.115-.06.173l-.053.161a.844.844,0,0,0-.032.108h.794l1.61-4.234a2.519,2.519,0,0,0,.119-.374,1.358,1.358,0,0,0,.026-.151Zm-6.592,0-.9,1.772L80.954,55.84h-.968q.444.691.822,1.265c.251.382.491.738.715,1.064s.436.632.637.915.394.554.586.815H80.334v.749h3.375V60.09a.347.347,0,0,0-.008-.063.476.476,0,0,0-.033-.082,1.138,1.138,0,0,0-.069-.113l-1.078-1.6c.208-.354.4-.688.581-1l.23-.4c.081-.138.152-.268.222-.392s.13-.235.185-.338.1-.187.133-.253Zm-4.324,0H76.955v.733l.952-.007v4.082h.764Zm-3.09,0h-.815l0,2.311a1.7,1.7,0,0,1-.06.464,1.591,1.591,0,0,1-.156.374,1.305,1.305,0,0,1-.221.287,1.561,1.561,0,0,1-.253.206q-.056.03-.154.077l-.2.094c-.077.035-.157.073-.241.11l-.823-3.923H71.78l.994,4.139-1.152.4.013.794,2.03-.733c.035-.013.082-.03.137-.054s.119-.048.188-.076l.207-.089c.073-.032.14-.063.2-.094a2,2,0,0,0,.436-.291A1.958,1.958,0,0,0,75.2,59.4a2.276,2.276,0,0,0,.256-.584,2.681,2.681,0,0,0,.1-.742Zm-5.318,0H68.548v.733l.951-.007v4.082h.764ZM67.12,57.509a2.774,2.774,0,0,0-.12-.82,1.183,1.183,0,0,0-.329-.515,1.241,1.241,0,0,0-.534-.268,2.927,2.927,0,0,0-.729-.075l-2.83.016.006.74.663,0,.022,3.308H62.3v.756h1.711v-.756l-.015-3.319,1.359,0a1.418,1.418,0,0,1,.4.055.781.781,0,0,1,.319.185.874.874,0,0,1,.213.342,1.573,1.573,0,0,1,.081.532l.027,2.965h.761Zm-12.478.281h-.8v2.858h.8Zm-.8-1.95v.742h2.97v4.067h.759V55.84Zm-1.653,0h-.828l.03,2.527a2,2,0,0,1-.078.643,1.462,1.462,0,0,1-.244.463,1.015,1.015,0,0,1-.227.207,1.372,1.372,0,0,1-.242.131,1.034,1.034,0,0,1-.215.069.882.882,0,0,1-.152.019l-.492,0,.039-2.889,0-1.174h-.815L49,59.066l.023.829H47.6l-.1-4.056h-.832l.194,4.8,3.372.012a1.841,1.841,0,0,0,.351-.039,1.968,1.968,0,0,0,.4-.125,1.994,1.994,0,0,0,.392-.228,1.614,1.614,0,0,0,.345-.346,2.379,2.379,0,0,0,.345-.671,2.686,2.686,0,0,0,.13-.883Zm-7.145,0h-1.69v.733l.929-.007v1.752h.761Zm-3.027,0H41.2l0,2.311a1.7,1.7,0,0,1-.058.464,1.642,1.642,0,0,1-.156.374,1.342,1.342,0,0,1-.221.287,1.605,1.605,0,0,1-.251.206l-.156.077-.2.094-.239.11L39.1,55.84h-.885l1,4.139-1.153.4.012.794,2.03-.733c.036-.013.082-.03.138-.054s.119-.048.187-.076.137-.057.208-.089.14-.063.2-.094a1.945,1.945,0,0,0,.436-.291,1.9,1.9,0,0,0,.366-.433,2.276,2.276,0,0,0,.256-.584,2.68,2.68,0,0,0,.1-.742Zm-5.428.89a1.294,1.294,0,0,0-.312-.529,1.119,1.119,0,0,0-.485-.28,2.269,2.269,0,0,0-.632-.082h-1.97v.742h1.895a1.087,1.087,0,0,1,.28.04.683.683,0,0,1,.277.154.834.834,0,0,1,.211.315,1.407,1.407,0,0,1,.083.525v3.033H36.7v-3.09a2.643,2.643,0,0,0-.11-.828m-8.078-.89H26.8v.733l.952-.007v4.082h.764Zm-6.041,1.95h-.8v2.858h.8Zm-.8-1.95v.742h2.968v4.067h.76V55.84Zm-1.623,0H18.365v.733l.926-.007v1.752h.76Zm-3.041,0H15.3v.733l.951-.007v4.082h.763Zm-3.153,4.037-.064-4.037H10.3l0,1.593a2.588,2.588,0,0,0,.044.517.68.68,0,0,0,.54.568,2.113,2.113,0,0,0,.621.043l.411-.019-.016-.65-.319.008a.692.692,0,0,1-.18-.018.5.5,0,0,1-.171-.076.411.411,0,0,1-.127-.152.5.5,0,0,1-.046-.246l.011-.828h1.981l.076,3.318H10.161l-.007.749h3.7ZM8.627,55.84H6.938v.733l.929-.007v1.752h.76Z" transform="translate(-6.938 -0.066)"/>
      </g>
    </g>
    <g id="Group_7967" data-name="Group 7967" transform="translate(121.528 24.668)">
      <g id="Group_7966" data-name="Group 7966" clip-path="url(#clip-path-2)">
        <rect id="Rectangle_2313" data-name="Rectangle 2313" width="18.023" height="26.336" transform="translate(0 0)" fill="url(#linear-gradient)"/>
      </g>
    </g>
    <g id="Group_7969" data-name="Group 7969" transform="translate(113.016 24.668)">
      <g id="Group_7968" data-name="Group 7968" clip-path="url(#clip-path-3)">
        <rect id="Rectangle_2314" data-name="Rectangle 2314" width="18.021" height="26.336" transform="translate(0 0)" fill="url(#linear-gradient-2)"/>
      </g>
    </g>
    <g id="Group_7971" data-name="Group 7971" transform="translate(6.938 7.93)">
      <g id="Group_7970" data-name="Group 7970" clip-path="url(#clip-path)">
        <path id="Path_23121" data-name="Path 23121" d="M60.1,28.353a2.681,2.681,0,0,1,.87,2.074,3.365,3.365,0,0,1-.194,1.139,2.493,2.493,0,0,1-.611.954,2.992,2.992,0,0,1-1.064.648,4.493,4.493,0,0,1-1.557.241H53.267V27.557h4.388a3.489,3.489,0,0,1,2.444.8M70.787,48.577q-1.484-1.667-2.826-3.111t-2.582-2.751q-1.242-1.305-2.409-2.51T60.655,37.8a10.369,10.369,0,0,0,2.908-.76,7.464,7.464,0,0,0,2.306-1.527,6.637,6.637,0,0,0,1.509-2.288,8.133,8.133,0,0,0,.537-3.056,8.594,8.594,0,0,0-.787-3.926,6.285,6.285,0,0,0-2.12-2.426,8.375,8.375,0,0,0-3.092-1.232,19.383,19.383,0,0,0-3.7-.343H46.431V48.577h6.836V38.113l9.111,10.464Z" transform="translate(-0.242 -5.504)"/>
        <path id="Path_23122" data-name="Path 23122" d="M82.628,48.5q1.075-.072,2.275-.242t2.455-.456a22.675,22.675,0,0,0,2.472-.717V33.33l-11.072.019v4.568h4.515v5.034c-.214.036-.46.073-.734.108s-.549.065-.823.09-.534.044-.78.062-.45.027-.618.027A8.2,8.2,0,0,1,77.1,42.7a4.617,4.617,0,0,1-1.971-1.55,6.081,6.081,0,0,1-.994-2.482,18.648,18.648,0,0,1-.269-3.332,16.36,16.36,0,0,1,.3-3.261,6.1,6.1,0,0,1,1.048-2.463,4.847,4.847,0,0,1,2.025-1.559,8.225,8.225,0,0,1,3.224-.546q1.219,0,3.512.206a49.445,49.445,0,0,1,5.3.815V23.065q-1.021-.216-2.132-.377t-2.24-.26q-1.128-.1-2.23-.144T80.55,22.24a18.747,18.747,0,0,0-5.706.8,10.657,10.657,0,0,0-4.21,2.436,10.473,10.473,0,0,0-2.6,4.147,17.77,17.77,0,0,0-.887,5.912,17.725,17.725,0,0,0,.788,5.492,10.2,10.2,0,0,0,2.446,4.1,10.772,10.772,0,0,0,4.21,2.563,18.639,18.639,0,0,0,6.1.887q.86,0,1.934-.071" transform="translate(3.271 -5.504)"/>
      </g>
    </g>
    <rect id="Rectangle_2316" data-name="Rectangle 2316" width="6.834" height="26.336" transform="translate(103.11 24.668)"/>
    <path id="Path_23123" data-name="Path 23123" d="M46.731,48.577v-5.5H33.4V37.742h12.39V32.649H33.4V27.722H46.731V22.241H26.562V48.577Z" transform="translate(3.327 2.426)"/>
    <g id="Group_7973" data-name="Group 7973" transform="translate(12.477 7.931)">
      <g id="Group_7972" data-name="Group 7972" clip-path="url(#clip-path-5)">
        <rect id="Rectangle_2317" data-name="Rectangle 2317" width="34.987" height="32.526" transform="matrix(0.522, -0.853, 0.853, 0.522, -13.654, 20.556)" fill="url(#linear-gradient-3)"/>
      </g>
    </g>
    <g id="Group_7975" data-name="Group 7975" transform="translate(7.098 31.259)">
      <g id="Group_7974" data-name="Group 7974" clip-path="url(#clip-path-6)">
        <rect id="Rectangle_2318" data-name="Rectangle 2318" width="20.821" height="29.88" transform="translate(0 0)" fill="url(#linear-gradient-4)"/>
      </g>
    </g>
    <g id="Group_7977" data-name="Group 7977" transform="translate(6.938 7.93)">
      <g id="Group_7976" data-name="Group 7976" clip-path="url(#clip-path)">
        <path id="Path_23126" data-name="Path 23126" d="M131.218,51.569a.8.8,0,0,1-.239.273,1.079,1.079,0,0,1-.361.164,1.864,1.864,0,0,1-.463.054,1.8,1.8,0,0,1-.463-.056,1.079,1.079,0,0,1-.368-.17.806.806,0,0,1-.242-.28.851.851,0,0,1-.084-.388.876.876,0,0,1,.082-.384.814.814,0,0,1,.234-.285,1.083,1.083,0,0,1,.36-.179,1.616,1.616,0,0,1,.458-.062,1.676,1.676,0,0,1,.464.062,1.111,1.111,0,0,1,.373.182.834.834,0,0,1,.247.292.857.857,0,0,1,.088.394.827.827,0,0,1-.085.382m-.184-2.374a.755.755,0,0,1-.211.229,1.018,1.018,0,0,1-.306.145,1.323,1.323,0,0,1-.366.05,1.364,1.364,0,0,1-.384-.053.975.975,0,0,1-.309-.151.711.711,0,0,1-.206-.24.658.658,0,0,1-.077-.319.578.578,0,0,1,.081-.3.758.758,0,0,1,.214-.227,1.05,1.05,0,0,1,.31-.145,1.289,1.289,0,0,1,.364-.051,1.456,1.456,0,0,1,.367.047.912.912,0,0,1,.31.144.717.717,0,0,1,.213.239.639.639,0,0,1,.081.327.573.573,0,0,1-.081.305m.8,1.2a1.62,1.62,0,0,0-.772-.484,1.357,1.357,0,0,0,.356-.2,1.175,1.175,0,0,0,.413-.581,1.191,1.191,0,0,0-.088-.911,1.266,1.266,0,0,0-.377-.42,1.744,1.744,0,0,0-.557-.258,2.6,2.6,0,0,0-.677-.087,2.434,2.434,0,0,0-.667.089,1.681,1.681,0,0,0-.554.265,1.255,1.255,0,0,0-.374.436,1.239,1.239,0,0,0-.139.6,1.152,1.152,0,0,0,.051.343,1.027,1.027,0,0,0,.156.3,1.081,1.081,0,0,0,.257.247,1.4,1.4,0,0,0,.36.178,1.461,1.461,0,0,0-.766.476,1.285,1.285,0,0,0-.267.822,1.359,1.359,0,0,0,.154.658,1.392,1.392,0,0,0,.42.474,1.941,1.941,0,0,0,.62.289,3,3,0,0,0,1.513,0,1.93,1.93,0,0,0,.621-.285,1.449,1.449,0,0,0,.423-.469,1.292,1.292,0,0,0,.158-.651,1.253,1.253,0,0,0-.266-.832m-11.159-2.855h-3.847v.691h2.822a8.534,8.534,0,0,0-1.433,2.174,7.245,7.245,0,0,0-.415,1.139,5.906,5.906,0,0,0-.191,1.1h.837a5.688,5.688,0,0,1,.126-.787,7.5,7.5,0,0,1,.24-.823,8.242,8.242,0,0,1,.338-.823,7.78,7.78,0,0,1,.429-.789,6.629,6.629,0,0,1,.51-.716,4.947,4.947,0,0,1,.582-.606Zm-12.457,2.213a1.269,1.269,0,0,1-.255.173,1.333,1.333,0,0,1-.3.11,1.253,1.253,0,0,1-.3.039,1.4,1.4,0,0,1-.44-.067,1.121,1.121,0,0,1-.353-.193.888.888,0,0,1-.233-.3.938.938,0,0,1-.084-.4,1.109,1.109,0,0,1,.068-.4.9.9,0,0,1,.2-.315.885.885,0,0,1,.322-.208,1.253,1.253,0,0,1,.448-.074,1.056,1.056,0,0,1,.533.129,1.089,1.089,0,0,1,.363.332,1.335,1.335,0,0,1,.189.454,1.522,1.522,0,0,1,.026.492.829.829,0,0,1-.179.227m1.058-.108c-.007-.118-.021-.241-.04-.368s-.044-.254-.073-.379a2.1,2.1,0,0,0-.108-.336,2.351,2.351,0,0,0-.258-.449,1.539,1.539,0,0,0-.368-.354,1.769,1.769,0,0,0-.5-.233,2.3,2.3,0,0,0-.653-.083,2.03,2.03,0,0,0-.754.132,1.712,1.712,0,0,0-.572.365,1.625,1.625,0,0,0-.365.544,1.7,1.7,0,0,0-.13.663,1.583,1.583,0,0,0,.123.622,1.442,1.442,0,0,0,.359.505,1.763,1.763,0,0,0,.577.34,2.231,2.231,0,0,0,.77.125,1.533,1.533,0,0,0,.688-.147,1.777,1.777,0,0,0,.506-.368c-.006.106-.015.221-.029.345a3.7,3.7,0,0,1-.06.371,2.362,2.362,0,0,1-.1.357,1.421,1.421,0,0,1-.147.305.943.943,0,0,1-.2.223,1.085,1.085,0,0,1-.241.144,1.149,1.149,0,0,1-.263.076,1.845,1.845,0,0,1-.277.022c-.077,0-.161,0-.255-.013a2.377,2.377,0,0,1-.305-.051,3.159,3.159,0,0,1-.352-.105,2.845,2.845,0,0,1-.392-.18l-.1.712a1.678,1.678,0,0,0,.3.133,2.887,2.887,0,0,0,.353.092c.123.025.247.042.375.055s.249.018.371.018a2.207,2.207,0,0,0,1.044-.229,1.666,1.666,0,0,0,.7-.719,2.886,2.886,0,0,0,.179-.427,3.828,3.828,0,0,0,.12-.472c.029-.161.054-.322.068-.481s.023-.306.023-.446q0-.13-.014-.309m-12.5-2.192h-.542a1.56,1.56,0,0,1-.276.356,4.391,4.391,0,0,1-.416.364,3.63,3.63,0,0,1-.527.334,6.154,6.154,0,0,1-.616.288v.756a3.464,3.464,0,0,0,.4-.154,3.753,3.753,0,0,0,.422-.223,4.247,4.247,0,0,0,.392-.263c.127-.1.234-.18.323-.253v3.988h.84ZM76.63,52H73.35V50.3h3.063v-.648H73.35V48.126H76.63v-.647h-4.1v5.169h4.1Zm-12.008-.145c-.171.043-.327.081-.468.112s-.271.057-.4.077-.25.034-.374.043-.261.014-.408.014a2.35,2.35,0,0,1-.878-.156,1.918,1.918,0,0,1-.665-.433,1.864,1.864,0,0,1-.422-.653,2.212,2.212,0,0,1-.15-.813,2.291,2.291,0,0,1,.133-.788,1.8,1.8,0,0,1,.4-.641,1.868,1.868,0,0,1,.656-.428,2.455,2.455,0,0,1,.912-.157c.13,0,.251,0,.371.007s.242.016.371.033.268.042.416.075.319.077.506.132v-.661c-.122-.036-.243-.069-.365-.1s-.244-.051-.377-.07-.27-.035-.416-.046-.3-.016-.478-.016a3.862,3.862,0,0,0-1.182.174,2.719,2.719,0,0,0-.945.512,2.344,2.344,0,0,0-.62.835,2.754,2.754,0,0,0-.223,1.139,2.563,2.563,0,0,0,.749,2.034,3.275,3.275,0,0,0,2.222.657,5.539,5.539,0,0,0,.861-.064,6.688,6.688,0,0,0,.775-.168ZM52.274,47.479h-.787v3.973l-3-3.973h-.779v5.169H48.5V48.671l2.992,3.978h.779Zm-12.577,0h-.823v5.169H39.7Zm-8.8,3.182a1.352,1.352,0,0,0-.351-.42,2.01,2.01,0,0,0-.518-.3,4.227,4.227,0,0,0-.634-.2l-1.11-.25a1.628,1.628,0,0,1-.7-.3.616.616,0,0,1-.225-.488.5.5,0,0,1,.091-.3.718.718,0,0,1,.257-.212,1.373,1.373,0,0,1,.382-.127,2.513,2.513,0,0,1,.474-.042,5.037,5.037,0,0,1,.515.026c.171.016.339.039.5.065s.326.056.482.09.305.069.45.106l.054-.695c-.145-.032-.292-.061-.443-.089s-.305-.053-.467-.075-.33-.039-.506-.051-.363-.018-.559-.018a3.537,3.537,0,0,0-.9.1,1.873,1.873,0,0,0-.633.288,1.163,1.163,0,0,0-.375.444,1.334,1.334,0,0,0-.123.577,1.132,1.132,0,0,0,.416.883,2.6,2.6,0,0,0,1.2.527l.988.207a2.906,2.906,0,0,1,.4.115,1.505,1.505,0,0,1,.338.174.856.856,0,0,1,.236.246.61.61,0,0,1,.088.327.584.584,0,0,1-.1.332.848.848,0,0,1-.267.251,1.347,1.347,0,0,1-.392.158,1.989,1.989,0,0,1-.473.055,5.323,5.323,0,0,1-.566-.033c-.2-.022-.393-.051-.588-.088s-.386-.078-.572-.125-.36-.1-.525-.147l-.061.705c.174.046.358.09.549.131s.385.077.58.109.389.056.582.075.379.027.559.027a3.2,3.2,0,0,0,.857-.106,2.05,2.05,0,0,0,.656-.3,1.381,1.381,0,0,0,.418-.475,1.308,1.308,0,0,0,.147-.623,1.17,1.17,0,0,0-.129-.561" transform="translate(-3.611 -1.24)"/>
      </g>
    </g>
  </g>
</svg>
